<svg width="49" height="47" viewBox="0 0 49 47" fill="none" xmlns="http://www.w3.org/2000/svg">
<path d="M15.6639 45.8834L12.3361 40.2589L6.02459 38.8814C5.45082 38.7667 4.9918 38.4697 4.64754 37.9907C4.30328 37.5116 4.1694 36.9859 4.2459 36.4135L4.87705 29.9281L0.573771 24.9922C0.191257 24.5713 0 24.0739 0 23.5C0 22.9261 0.191257 22.4287 0.573771 22.0078L4.87705 17.0719L4.2459 10.5865C4.1694 10.0125 4.30328 9.48606 4.64754 9.00702C4.9918 8.52797 5.45082 8.23182 6.02459 8.11857L12.3361 6.74113L15.6639 1.11657C15.9699 0.619162 16.3907 0.283984 16.9262 0.111039C17.4618 -0.0619066 17.9973 -0.0328273 18.5328 0.198277L24.5 2.72359L30.4672 0.198277C31.0027 -0.0312968 31.5383 -0.0603761 32.0738 0.111039C32.6093 0.282454 33.0301 0.617631 33.3361 1.11657L36.6639 6.74113L42.9754 8.11857C43.5492 8.23335 44.0082 8.53027 44.3525 9.00931C44.6967 9.48836 44.8306 10.0141 44.7541 10.5865L44.123 17.0719L48.4262 22.0078C48.8087 22.4287 49 22.9261 49 23.5C49 24.0739 48.8087 24.5713 48.4262 24.9922L44.123 29.9281L44.7541 36.4135C44.8306 36.9874 44.6967 37.5139 44.3525 37.993C44.0082 38.472 43.5492 38.7682 42.9754 38.8814L36.6639 40.2589L33.3361 45.8834C33.0301 46.3808 32.6093 46.716 32.0738 46.889C31.5383 47.0619 31.0027 47.0328 30.4672 46.8017L24.5 44.2764L18.5328 46.8017C17.9973 47.0313 17.4618 47.0604 16.9262 46.889C16.3907 46.7175 15.9699 46.3824 15.6639 45.8834ZM24.5 34.9787C25.1503 34.9787 25.6957 34.7583 26.1364 34.3175C26.5771 33.8767 26.7966 33.3319 26.7951 32.6829C26.7951 32.0325 26.5748 31.4869 26.1341 31.0461C25.6934 30.6053 25.1487 30.3857 24.5 30.3872C23.8497 30.3872 23.3043 30.6076 22.8636 31.0484C22.423 31.4892 22.2034 32.034 22.2049 32.6829C22.2049 33.3334 22.4252 33.879 22.8659 34.3198C23.3066 34.7606 23.8513 34.9802 24.5 34.9787ZM24.5 25.7957C25.1503 25.7957 25.6957 25.5753 26.1364 25.1346C26.5771 24.6938 26.7966 24.1489 26.7951 23.5V14.3171C26.7951 13.6666 26.5748 13.121 26.1341 12.6802C25.6934 12.2394 25.1487 12.0198 24.5 12.0213C23.8497 12.0213 23.3043 12.2417 22.8636 12.6825C22.423 13.1233 22.2034 13.6681 22.2049 14.3171V23.5C22.2049 24.1505 22.4252 24.6961 22.8659 25.1369C23.3066 25.5776 23.8513 25.7973 24.5 25.7957Z" fill="#C90C0C"/>
</svg>
