<svg width="527" height="469" viewBox="0 0 527 469" fill="none" xmlns="http://www.w3.org/2000/svg">
<g filter="url(#filter0_f_603_5920)">
<path d="M263.138 448.19C397.419 448.19 506.276 441.835 506.276 433.995C506.276 426.155 397.419 419.8 263.138 419.8C128.857 419.8 20 426.155 20 433.995C20 441.835 128.857 448.19 263.138 448.19Z" fill="#F5F5F5" fill-opacity="0.25"/>
</g>
<path d="M387.598 116.972L375.158 111.956C375.158 111.956 358.743 141.889 354.041 143.406C347.645 145.462 334.403 151.181 326.553 152.184C325.487 153.438 323.744 157.338 323.907 158.755C334.453 162.279 357.627 157.601 362.593 153.914C373.891 145.55 387.598 116.972 387.598 116.972Z" fill="#E58A7B"/>
<path d="M391.422 110.162C393.742 118.727 381.177 135.957 381.177 135.957L364.712 126.728C364.712 126.728 367.797 119.643 371.559 112.432C377.591 100.782 388.776 100.394 391.422 110.162Z" fill="#BC39CE"/>
<path opacity="0.2" d="M391.422 110.162C393.742 118.727 381.177 135.957 381.177 135.957L364.712 126.728C364.712 126.728 367.797 119.643 371.559 112.432C377.591 100.782 388.776 100.394 391.422 110.162Z" fill="black"/>
<path opacity="0.2" d="M371.245 130.414L377.729 134.051L378.87 114.15C375.095 117.047 372.437 125.774 371.245 130.414Z" fill="black"/>
<path d="M380.588 103.717C380.588 103.717 367.772 132.233 375.246 185.327H425.744C426.547 177.577 423.888 139.757 433.507 103.24C427.967 102.157 422.362 101.441 416.728 101.096C409.582 100.682 402.418 100.682 395.272 101.096C390.318 101.599 385.41 102.475 380.588 103.717Z" fill="#BC39CE"/>
<path opacity="0.2" d="M380.588 103.717C380.588 103.717 367.772 132.233 375.246 185.327H425.744C426.547 177.577 423.888 139.757 433.507 103.24C427.967 102.157 422.362 101.441 416.728 101.096C409.582 100.682 402.418 100.682 395.272 101.096C390.318 101.599 385.41 102.475 380.588 103.717Z" fill="black"/>
<g style="mix-blend-mode:multiply">
<path d="M368.875 435.124C368.8 436.478 387.949 437.569 411.637 437.569C435.325 437.569 454.611 436.478 454.687 435.124C454.762 433.77 435.626 432.691 411.925 432.691C388.225 432.691 368.963 433.782 368.875 435.124Z" fill="#E8ECF1"/>
</g>
<path d="M402.584 399.539L393.627 403.006L401.342 422.937L410.299 419.469L402.584 399.539Z" fill="#E58A7B"/>
<path d="M442.523 425.481H433.08L429.619 403.624H439.062L442.523 425.481Z" fill="#E58A7B"/>
<path d="M432.428 424.39H443.037C443.221 424.39 443.399 424.456 443.539 424.575C443.679 424.695 443.772 424.86 443.802 425.042L445.169 433.431C445.198 433.641 445.181 433.856 445.119 434.059C445.058 434.262 444.954 434.45 444.813 434.61C444.673 434.769 444.5 434.896 444.306 434.983C444.112 435.07 443.901 435.113 443.689 435.111C439.99 435.049 438.209 434.823 433.544 434.823C430.672 434.823 424.766 435.124 420.778 435.124C416.791 435.124 416.527 431.211 418.17 430.848C425.544 429.255 428.403 427.086 430.861 424.979C431.294 424.598 431.851 424.389 432.428 424.39Z" fill="#263238"/>
<path d="M401.078 421.154L411.11 418.22C411.289 418.169 411.48 418.181 411.651 418.254C411.822 418.327 411.963 418.457 412.051 418.621L415.813 426.145C415.9 426.336 415.945 426.543 415.943 426.753C415.942 426.963 415.895 427.17 415.806 427.36C415.716 427.55 415.586 427.718 415.425 427.853C415.264 427.987 415.075 428.085 414.872 428.139C411.223 429.142 408.778 429.756 404.213 431.086C401.066 432.001 397.855 433.493 394.745 434.484C392.589 435.174 387.522 435.199 384.901 435.199C381.027 435.199 380.161 431.111 381.829 430.923C386.03 430.459 386.594 430.672 388.914 429.506C392.71 427.846 396.151 425.47 399.047 422.508C399.593 421.886 400.294 421.419 401.078 421.154Z" fill="#263238"/>
<path d="M328.133 152.134L317.75 147.782L313.474 159.294C317.729 159.942 322.059 159.942 326.315 159.294L328.133 152.134Z" fill="#E58A7B"/>
<path d="M310.025 147.481L309.749 155.131L313.474 159.269L317.75 147.757L310.025 147.481Z" fill="#E58A7B"/>
<path d="M403.812 401.232L394.828 404.7L398.807 415.007L407.791 411.538L403.812 401.232Z" fill="#CF6F64"/>
<path d="M439.062 403.624H429.619L431.412 414.897H440.855L439.062 403.624Z" fill="#CF6F64"/>
<path opacity="0.2" d="M373.641 170.969C373.829 173.239 374.042 175.558 374.318 177.941L411.862 165.752C417.726 164.014 422.821 160.33 426.309 155.306C426.459 151.958 426.647 148.434 426.936 144.76C427.061 142.979 427.211 141.149 427.374 139.293C427.537 137.437 427.763 135.38 428.001 133.399L373.641 170.969Z" fill="black"/>
<path d="M385.905 129.838L384.651 129.687C385.391 123.417 390.068 118.477 394.996 118.602V119.856C390.682 119.768 386.569 124.22 385.905 129.838Z" fill="white"/>
<path d="M392.589 141.412H392.375V140.158C396.689 140.321 400.74 135.819 401.404 130.213L402.658 130.364C401.994 136.496 397.467 141.412 392.589 141.412Z" fill="white"/>
<path d="M416.026 76.9312C414.258 83.8407 412.176 96.4936 416.728 101.096C416.728 101.096 413.543 108.106 400.714 108.106C388.99 108.106 395.272 101.096 395.272 101.096C403.072 99.2649 403.21 93.5717 402.182 88.1795L416.026 76.9312Z" fill="#E58A7B"/>
<path d="M410.383 81.521L402.194 88.1797C402.448 89.4188 402.595 90.6775 402.633 91.9417C405.028 94.3243 409.831 88.2926 410.32 85.2078C410.569 83.9933 410.59 82.7432 410.383 81.521Z" fill="#CF6F64"/>
<path d="M388.112 76.8436C388.682 77.8312 389.449 78.6906 390.366 79.3681C391.283 80.0457 392.33 80.5267 393.441 80.7812C396.451 81.4458 397.956 78.6745 397.128 75.8906C396.388 73.3826 393.918 70.0093 390.858 70.5862C390.203 70.7212 389.589 71.0113 389.069 71.4322C388.549 71.853 388.137 72.3924 387.868 73.0052C387.599 73.618 387.481 74.2862 387.523 74.9541C387.566 75.6219 387.767 76.2698 388.112 76.8436Z" fill="#CF6F64"/>
<path d="M393.09 54.7354C388.4 56.8797 386.745 75.5142 392.639 78.273C398.532 81.0318 401.968 50.6599 393.09 54.7354Z" fill="#263238"/>
<path d="M417.455 66.5356C416.327 75.8905 416.201 81.3955 411.185 86.1858C409.631 87.7755 407.668 88.9046 405.512 89.4487C403.356 89.9928 401.092 89.9305 398.97 89.2688C396.847 88.6072 394.949 87.3718 393.484 85.6992C392.019 84.0266 391.046 81.9817 390.67 79.7904C389.153 71.3886 391.247 57.5068 400.627 53.7825C402.597 52.9132 404.765 52.5868 406.904 52.8373C409.044 53.0877 411.077 53.9059 412.794 55.2068C414.511 56.5078 415.848 58.2443 416.668 60.2363C417.487 62.2282 417.759 64.4032 417.455 66.5356Z" fill="#E58A7B"/>
<path d="M402.044 59.5756C408.991 57.8074 414.095 56.6036 412.264 62.3845C409.844 70.1092 406.934 77.583 410.834 77.9216C413.217 78.1348 423.75 73.6705 422.409 69.1436C421.242 65.206 426.171 64.1276 427.048 62.1337C430.296 54.9107 421.004 55.8637 422.659 51.4747C424.315 47.0857 415.135 40.0132 410.119 43.5369C401.956 49.2301 387.949 49.1423 395.31 39.7749C400.589 33.0911 391.171 34.4579 391.171 34.4579C391.171 34.4579 396.865 37.8312 387.284 43.0479C377.152 48.6156 386.444 63.5758 402.044 59.5756Z" fill="#263238"/>
<path d="M421.142 76.8436C419.771 78.8281 417.71 80.2317 415.361 80.7812C412.264 81.4458 411.072 78.6745 412.239 75.8906C413.28 73.3826 416.139 70.0093 419.098 70.5862C422.058 71.163 422.735 74.3858 421.142 76.8436Z" fill="#E58A7B"/>
<path d="M375.246 185.327C375.246 185.327 366.769 261.194 366.104 289.985C365.427 319.931 394.833 413.367 394.833 413.367L409.881 407.097C409.881 407.097 392.325 321.724 394.833 292.318C397.492 260.253 408.477 185.377 408.477 185.377L375.246 185.327Z" fill="#BC39CE"/>
<path opacity="0.2" d="M396.313 206.156C389.554 220.176 394.106 247.902 397.768 264.329C399.159 252.73 400.815 240.139 402.382 228.49C402.232 210.583 400.84 196.751 396.313 206.156Z" fill="black"/>
<path d="M409.217 402.131C409.292 402.131 410.997 406.922 410.997 406.922L393.642 414.22L390.908 409.129L409.217 402.131Z" fill="#BC39CE"/>
<path d="M393.165 185.327C393.165 185.327 399.649 257.482 403.937 284.506C408.652 314.112 427.136 412.714 427.136 412.714H444.429C444.429 412.714 434.071 316.508 432.115 287.189C429.983 255.388 425.744 185.327 425.744 185.327H393.165Z" fill="#BC39CE"/>
<path d="M444.692 408.213C444.767 408.213 445.269 413.041 445.269 413.041H426.258L424.904 407.498L444.692 408.213Z" fill="#BC39CE"/>
<path opacity="0.2" d="M438.071 402.495C438.032 402.495 437.994 402.481 437.964 402.456C437.934 402.431 437.914 402.395 437.908 402.357C437.808 401.479 428.465 314.577 426.71 288.243C424.804 259.676 420.966 196.312 420.929 195.672C420.927 195.652 420.93 195.631 420.937 195.611C420.943 195.591 420.954 195.573 420.968 195.558C420.982 195.542 421 195.53 421.019 195.522C421.038 195.513 421.059 195.509 421.079 195.509C421.121 195.509 421.16 195.525 421.19 195.553C421.221 195.58 421.239 195.619 421.242 195.66C421.242 196.299 425.117 259.614 427.023 288.23C428.779 314.564 438.121 401.404 438.209 402.344C438.213 402.365 438.212 402.386 438.207 402.406C438.201 402.427 438.192 402.446 438.179 402.462C438.166 402.479 438.15 402.493 438.131 402.502C438.113 402.512 438.092 402.518 438.071 402.52V402.495Z" fill="black"/>
<path d="M403.11 69.144C403.11 69.909 402.633 70.5234 402.131 70.5234C401.63 70.5234 401.266 69.909 401.316 69.144C401.366 68.3791 401.793 67.7646 402.294 67.7646C402.796 67.7646 403.16 68.3916 403.11 69.144Z" fill="#263238"/>
<path d="M394.507 69.144C394.507 69.909 394.018 70.5234 393.529 70.5234C393.04 70.5234 392.664 69.909 392.701 69.144C392.739 68.3791 393.19 67.7646 393.692 67.7646C394.194 67.7646 394.557 68.3916 394.507 69.144Z" fill="#263238"/>
<path d="M397.216 69.5322C396.169 71.8681 394.82 74.0562 393.203 76.0405C394.457 77.2945 396.802 76.7177 396.802 76.7177L397.216 69.5322Z" fill="#DF5753"/>
<path d="M397.441 79.9156C397.412 79.9157 397.384 79.9098 397.357 79.8983C397.33 79.8868 397.306 79.87 397.286 79.8488C397.266 79.8277 397.251 79.8027 397.241 79.7753C397.231 79.748 397.227 79.7189 397.228 79.6899C397.231 79.6289 397.258 79.5715 397.302 79.5295C397.347 79.4875 397.405 79.4641 397.467 79.4642C398.426 79.4708 399.374 79.2625 400.242 78.8546C401.11 78.4466 401.876 77.8493 402.483 77.1067C402.526 77.0687 402.582 77.0479 402.639 77.0479C402.697 77.0479 402.753 77.0687 402.796 77.1067C402.837 77.1487 402.859 77.2049 402.859 77.2634C402.859 77.3219 402.837 77.3781 402.796 77.4202C402.146 78.2095 401.328 78.8433 400.402 79.2751C399.475 79.7069 398.464 79.9258 397.441 79.9156Z" fill="#263238"/>
<path d="M404.639 66.8365C404.579 66.8673 404.513 66.8834 404.445 66.8834C404.377 66.8834 404.311 66.8673 404.251 66.8365C403.782 66.5333 403.248 66.3446 402.692 66.2858C402.137 66.227 401.575 66.2997 401.053 66.498C401.002 66.5234 400.947 66.5384 400.89 66.5421C400.833 66.5458 400.776 66.538 400.722 66.5193C400.668 66.5006 400.619 66.4713 400.577 66.4332C400.534 66.3951 400.5 66.3489 400.476 66.2973C400.43 66.1857 400.428 66.0604 400.473 65.9479C400.517 65.8355 400.604 65.7449 400.714 65.6954C401.37 65.4276 402.081 65.322 402.786 65.3875C403.491 65.453 404.17 65.6877 404.765 66.0716C404.813 66.1043 404.854 66.1462 404.886 66.1949C404.917 66.2436 404.939 66.2981 404.95 66.3552C404.96 66.4124 404.959 66.4711 404.947 66.5279C404.935 66.5847 404.911 66.6384 404.878 66.6861C404.814 66.758 404.732 66.8102 404.639 66.8365Z" fill="#263238"/>
<path d="M391.184 64.3285C391.117 64.3123 391.056 64.2775 391.008 64.2282C390.967 64.1873 390.934 64.1385 390.911 64.0847C390.888 64.0308 390.877 63.973 390.877 63.9147C390.877 63.8563 390.888 63.7985 390.911 63.7446C390.934 63.6908 390.967 63.642 391.008 63.6012C391.489 63.0621 392.088 62.6413 392.758 62.3716C393.428 62.1019 394.151 61.9905 394.871 62.0462C394.928 62.0551 394.984 62.0757 395.033 62.1069C395.082 62.138 395.125 62.1789 395.158 62.2271C395.191 62.2753 395.213 62.3298 395.224 62.3871C395.235 62.4444 395.235 62.5034 395.222 62.5603C395.195 62.6764 395.127 62.7787 395.03 62.848C394.933 62.9173 394.814 62.9488 394.695 62.9365C394.125 62.9006 393.555 62.9949 393.027 63.2122C392.499 63.4294 392.027 63.764 391.648 64.1905C391.591 64.254 391.517 64.3005 391.435 64.3248C391.354 64.3491 391.267 64.3504 391.184 64.3285Z" fill="#263238"/>
<path d="M438.36 115.58L425.318 112.106C425.318 112.106 412.527 143.594 408 145.638C401.856 148.447 386.293 158.178 379.672 162.78C379.309 164.348 379.597 168.498 380.425 169.639C391.711 167.583 413.317 159.269 417.832 155.043C428.127 145.4 438.36 115.58 438.36 115.58Z" fill="#E58A7B"/>
<path d="M429.255 426.045C428.619 426.095 427.985 425.922 427.462 425.556C427.301 425.41 427.18 425.225 427.112 425.018C427.044 424.811 427.03 424.59 427.074 424.377C427.081 424.244 427.125 424.115 427.2 424.005C427.275 423.894 427.379 423.806 427.5 423.75C428.553 423.211 431.5 425.079 431.839 425.293C431.876 425.315 431.905 425.35 431.92 425.391C431.936 425.431 431.938 425.476 431.926 425.518C431.916 425.562 431.894 425.602 431.863 425.635C431.832 425.668 431.794 425.693 431.751 425.706C430.933 425.907 430.097 426.021 429.255 426.045ZM428.001 424.089C427.906 424.068 427.808 424.068 427.713 424.089C427.665 424.113 427.625 424.151 427.598 424.198C427.572 424.245 427.559 424.298 427.563 424.352C427.529 424.498 427.535 424.65 427.579 424.793C427.623 424.936 427.704 425.065 427.813 425.167C428.302 425.606 429.531 425.656 431.149 425.343C430.186 424.708 429.101 424.281 427.964 424.089H428.001Z" fill="#BC39CE"/>
<path d="M431.688 425.706C431.656 425.716 431.62 425.716 431.588 425.706C430.647 425.179 428.879 423.11 429.143 422.057C429.182 421.89 429.276 421.741 429.41 421.634C429.545 421.527 429.711 421.468 429.882 421.467C430.051 421.445 430.222 421.459 430.384 421.509C430.547 421.559 430.696 421.643 430.823 421.756C431.864 422.646 431.926 425.38 431.926 425.518C431.933 425.559 431.925 425.601 431.904 425.637C431.884 425.674 431.852 425.702 431.814 425.719C431.772 425.727 431.728 425.723 431.688 425.706ZM430.008 421.881H429.92C429.632 421.881 429.594 422.044 429.582 422.107C429.431 422.721 430.547 424.289 431.475 425.029C431.471 423.969 431.143 422.937 430.535 422.069C430.389 421.942 430.201 421.875 430.008 421.881Z" fill="#BC39CE"/>
<path d="M395.962 424.478C395.194 424.745 394.359 424.745 393.592 424.478C393.417 424.383 393.27 424.246 393.162 424.08C393.055 423.913 392.991 423.722 392.977 423.525C392.961 423.401 392.977 423.275 393.023 423.158C393.069 423.042 393.144 422.939 393.241 422.86C394.244 421.957 398.344 422.86 398.808 423.035C398.852 423.047 398.891 423.073 398.919 423.109C398.946 423.146 398.96 423.191 398.959 423.236C398.961 423.283 398.949 423.33 398.924 423.37C398.899 423.41 398.864 423.442 398.821 423.462C397.897 423.879 396.941 424.218 395.962 424.478ZM393.918 422.985C393.774 423.014 393.641 423.079 393.529 423.173C393.489 423.203 393.458 423.244 393.441 423.291C393.423 423.337 393.419 423.388 393.429 423.437C393.437 423.568 393.478 423.696 393.548 423.808C393.618 423.919 393.715 424.012 393.83 424.076C394.495 424.427 396.037 424.152 398.031 423.311C396.688 422.973 395.297 422.862 393.918 422.985Z" fill="#BC39CE"/>
<path d="M398.783 423.462H398.683C397.429 423.236 394.921 421.794 394.846 420.715C394.846 420.465 394.959 420.114 395.56 419.913C395.764 419.84 395.98 419.81 396.195 419.823C396.411 419.836 396.621 419.892 396.814 419.988C398.169 420.653 398.884 423.06 398.921 423.173C398.93 423.211 398.929 423.251 398.918 423.288C398.907 423.325 398.886 423.359 398.859 423.386C398.84 423.417 398.814 423.443 398.783 423.462ZM395.811 420.289H395.686C395.297 420.427 395.297 420.59 395.297 420.64C395.297 421.292 397.115 422.484 398.382 422.885C398.09 421.878 397.473 420.996 396.626 420.377C396.375 420.249 396.085 420.218 395.811 420.289Z" fill="#BC39CE"/>
<path d="M380.738 162.04L367.659 168.059L366.142 171.821L370.97 175.069C370.97 175.069 379.998 174.091 382.569 168.285L380.738 162.04Z" fill="#E58A7B"/>
<path d="M381.29 169.852C380.998 167.339 380.168 164.919 378.857 162.755L380.926 161.2C382.483 163.693 383.476 166.496 383.836 169.413L381.29 169.852Z" fill="#263238"/>
<path d="M383.522 163.821C383.799 164.256 383.934 164.765 383.911 165.28C383.888 165.795 383.706 166.29 383.392 166.698C383.077 167.106 382.644 167.407 382.152 167.561C381.66 167.714 381.133 167.712 380.642 167.555C380.151 167.398 379.721 167.094 379.409 166.684C379.097 166.273 378.919 165.777 378.899 165.262C378.88 164.747 379.019 164.238 379.299 163.806C379.579 163.373 379.985 163.036 380.462 162.843C380.998 162.569 381.62 162.519 382.193 162.702C382.766 162.885 383.244 163.287 383.522 163.821Z" fill="#263238"/>
<path d="M358.818 172.925L360.561 174.68L372.299 169.664L367.659 168.059L358.818 172.925Z" fill="#E58A7B"/>
<path opacity="0.2" d="M409.217 402.131C409.292 402.131 410.997 406.922 410.997 406.922L393.642 414.22L390.908 409.129L409.217 402.131Z" fill="black"/>
<path opacity="0.2" d="M444.692 408.213C444.767 408.213 445.269 413.041 445.269 413.041H426.258L424.904 407.498L444.692 408.213Z" fill="black"/>
<path d="M441.758 111.968C445.206 123.091 431.726 138.302 431.726 138.302L413.104 130.703C415.311 124.274 417.856 117.966 420.728 111.805C426.447 99.4784 438.272 100.745 441.758 111.968Z" fill="#BC39CE"/>
<path opacity="0.2" d="M441.758 111.968C445.206 123.091 431.726 138.302 431.726 138.302L413.104 130.703C415.311 124.274 417.856 117.966 420.728 111.805C426.447 99.4784 438.272 100.745 441.758 111.968Z" fill="black"/>
<path d="M256.718 0.524902H248.705V1.81652H256.718V0.524902Z" fill="#BC39CE"/>
<path d="M360.446 51.6461L359.476 73.168L360.767 73.2261L361.736 51.7042L360.446 51.6461Z" fill="#BC39CE"/>
<path d="M357.953 6.31885H209.981L196.212 314.452H344.184L357.953 6.31885Z" fill="#BC39CE"/>
<path opacity="0.56" d="M353.539 10.5566H205.567L191.798 318.69H339.77L353.539 10.5566Z" fill="#FAFAFA"/>
<path opacity="0.07" d="M349.125 14.7827H201.153L187.371 322.916H335.343L349.125 14.7827Z" fill="#BC39CE"/>
<path d="M332.284 149.174H205.981L204.927 172.749H331.23L332.284 149.174Z" fill="white"/>
<path d="M275.44 131.969H206.746L206.282 142.515H274.976L275.44 131.969Z" fill="#BC39CE"/>
<path d="M329.437 212.802H203.134L202.081 236.377H328.384L329.437 212.802Z" fill="white"/>
<path opacity="0.47" d="M306.276 268.216H221.342L220.076 296.469H305.009L306.276 268.216Z" fill="#BC39CE"/>
<path d="M300.595 300.858H215.662C215.625 300.868 215.586 300.868 215.549 300.858C215.536 300.822 215.536 300.782 215.549 300.745L216.803 272.48C216.803 272.461 216.807 272.442 216.814 272.424C216.822 272.407 216.833 272.391 216.847 272.378C216.862 272.365 216.878 272.355 216.897 272.349C216.915 272.343 216.934 272.341 216.953 272.342H301.887C301.902 272.335 301.919 272.331 301.937 272.331C301.954 272.331 301.971 272.335 301.987 272.342C301.996 272.358 302 272.375 302 272.392C302 272.41 301.996 272.427 301.987 272.443L300.758 300.771C300.743 300.8 300.719 300.824 300.69 300.84C300.661 300.855 300.628 300.862 300.595 300.858ZM215.812 300.557H300.445L301.699 272.593H217.066L215.812 300.557Z" fill="white"/>
<path d="M260.605 195.598H203.899L203.435 206.156H260.128L260.605 195.598Z" fill="#BC39CE"/>
<path d="M304.658 73.0185C304.334 79.8796 301.894 86.4721 297.673 91.8911C294.549 95.9844 290.528 99.3074 285.92 101.605C281.311 103.903 276.238 105.114 271.088 105.146C266.927 105.178 262.804 104.357 258.972 102.735C255.14 101.113 251.68 98.7229 248.807 95.7131C245.933 92.7033 243.706 89.137 242.263 85.2339C240.82 81.3309 240.191 77.1737 240.416 73.0185C240.857 64.396 244.575 56.2677 250.81 50.2958C257.045 44.3239 265.327 40.9596 273.96 40.891C278.124 40.8521 282.252 41.6677 286.089 43.2871C289.926 44.9066 293.39 47.2956 296.267 50.3066C299.144 53.3176 301.373 56.8865 302.816 60.7929C304.259 64.6993 304.886 68.8602 304.658 73.0185Z" fill="white"/>
<path d="M307.68 47.6125C307.598 49.4368 306.95 51.1903 305.824 52.6285C304.992 53.7157 303.922 54.5983 302.696 55.209C301.47 55.8196 300.121 56.1423 298.752 56.1522C297.425 56.1603 296.116 55.8434 294.94 55.2291C293.764 54.6149 292.757 53.722 292.005 52.6285C291.01 51.1509 290.518 49.392 290.601 47.6125C290.722 45.3232 291.712 43.1664 293.369 41.5818C295.025 39.9973 297.224 39.1044 299.517 39.0853C300.623 39.0752 301.719 39.2917 302.738 39.7214C303.757 40.1511 304.677 40.7849 305.442 41.5838C306.207 42.3827 306.8 43.3297 307.185 44.3666C307.57 45.4034 307.738 46.5081 307.68 47.6125Z" fill="#BC39CE"/>
<path d="M219.587 160.962C219.526 161.972 219.085 162.922 218.352 163.621C217.619 164.319 216.649 164.713 215.637 164.724C215.148 164.73 214.663 164.635 214.212 164.446C213.761 164.257 213.354 163.978 213.016 163.625C212.677 163.273 212.415 162.854 212.244 162.396C212.074 161.938 211.999 161.45 212.025 160.962C212.079 159.949 212.519 158.996 213.253 158.296C213.987 157.597 214.961 157.205 215.975 157.2C216.463 157.196 216.947 157.292 217.397 157.481C217.847 157.671 218.254 157.95 218.592 158.302C218.93 158.655 219.192 159.072 219.364 159.529C219.535 159.987 219.611 160.474 219.587 160.962Z" fill="#263238"/>
<path d="M236.491 160.961C236.433 161.973 235.993 162.925 235.259 163.624C234.526 164.322 233.554 164.716 232.54 164.723C232.053 164.728 231.569 164.632 231.12 164.442C230.671 164.252 230.265 163.973 229.928 163.62C229.591 163.268 229.329 162.85 229.16 162.393C228.99 161.936 228.916 161.449 228.941 160.961C228.996 159.951 229.433 158.999 230.165 158.3C230.897 157.601 231.867 157.208 232.879 157.199C233.368 157.194 233.853 157.288 234.303 157.477C234.754 157.666 235.161 157.945 235.5 158.298C235.838 158.651 236.101 159.069 236.271 159.527C236.442 159.985 236.516 160.473 236.491 160.961Z" fill="#263238"/>
<path d="M253.407 160.961C253.35 161.973 252.909 162.925 252.176 163.624C251.442 164.322 250.47 164.716 249.457 164.723C248.969 164.727 248.485 164.632 248.035 164.442C247.585 164.253 247.178 163.973 246.84 163.621C246.502 163.269 246.24 162.851 246.068 162.394C245.897 161.937 245.821 161.449 245.845 160.961C245.903 159.95 246.343 158.998 247.077 158.299C247.81 157.601 248.782 157.207 249.795 157.199C250.284 157.194 250.769 157.288 251.22 157.477C251.671 157.666 252.078 157.945 252.416 158.298C252.755 158.651 253.017 159.069 253.188 159.527C253.358 159.985 253.433 160.473 253.407 160.961Z" fill="#263238"/>
<path d="M216.74 224.59C216.68 225.6 216.239 226.55 215.506 227.248C214.773 227.947 213.802 228.341 212.79 228.352C212.302 228.356 211.818 228.26 211.368 228.07C210.918 227.881 210.511 227.601 210.173 227.249C209.835 226.897 209.573 226.479 209.402 226.022C209.23 225.565 209.155 225.077 209.178 224.59C209.236 223.578 209.676 222.626 210.41 221.928C211.143 221.229 212.115 220.836 213.129 220.828C213.617 220.824 214.101 220.919 214.551 221.109C215.001 221.299 215.407 221.578 215.745 221.93C216.083 222.283 216.346 222.7 216.517 223.157C216.688 223.615 216.764 224.102 216.74 224.59Z" fill="#263238"/>
<path d="M233.644 224.59C233.587 225.599 233.148 226.549 232.417 227.248C231.686 227.946 230.717 228.341 229.706 228.352C229.218 228.358 228.733 228.263 228.282 228.074C227.831 227.885 227.424 227.606 227.086 227.253C226.747 226.901 226.485 226.482 226.314 226.024C226.144 225.566 226.069 225.078 226.095 224.59C226.152 223.578 226.592 222.626 227.326 221.928C228.06 221.229 229.032 220.836 230.045 220.828C230.533 220.824 231.016 220.919 231.465 221.109C231.915 221.299 232.32 221.579 232.657 221.931C232.995 222.283 233.256 222.701 233.426 223.158C233.595 223.616 233.67 224.103 233.644 224.59Z" fill="#263238"/>
<path d="M250.598 224.59C250.541 225.601 250.101 226.553 249.367 227.252C248.633 227.951 247.661 228.344 246.648 228.352C246.16 228.354 245.677 228.257 245.228 228.067C244.779 227.877 244.373 227.597 244.035 227.245C243.698 226.894 243.435 226.477 243.263 226.02C243.092 225.564 243.014 225.077 243.036 224.59C243.097 223.579 243.538 222.629 244.271 221.931C245.004 221.233 245.974 220.839 246.987 220.828C247.475 220.822 247.96 220.917 248.411 221.106C248.862 221.294 249.269 221.574 249.607 221.926C249.946 222.279 250.208 222.697 250.379 223.155C250.549 223.614 250.624 224.102 250.598 224.59Z" fill="#263238"/>
<path d="M267.477 224.59C267.417 225.6 266.976 226.55 266.243 227.248C265.509 227.947 264.539 228.341 263.527 228.352C263.039 228.354 262.556 228.257 262.107 228.067C261.658 227.877 261.252 227.597 260.914 227.245C260.577 226.893 260.314 226.477 260.142 226.02C259.97 225.564 259.893 225.077 259.915 224.59C259.975 223.579 260.417 222.629 261.15 221.931C261.883 221.233 262.853 220.839 263.865 220.828C264.354 220.824 264.838 220.919 265.287 221.109C265.737 221.299 266.144 221.578 266.482 221.93C266.82 222.283 267.083 222.7 267.254 223.157C267.425 223.615 267.501 224.102 267.477 224.59Z" fill="#263238"/>
<path d="M284.456 224.59C284.396 225.6 283.955 226.55 283.222 227.248C282.489 227.947 281.518 228.341 280.506 228.352C280.017 228.358 279.532 228.263 279.082 228.074C278.631 227.885 278.224 227.606 277.885 227.253C277.547 226.901 277.284 226.482 277.114 226.024C276.943 225.566 276.869 225.078 276.894 224.59C276.952 223.578 277.392 222.626 278.126 221.928C278.859 221.229 279.831 220.836 280.845 220.828C281.333 220.824 281.817 220.919 282.267 221.109C282.717 221.299 283.123 221.578 283.461 221.93C283.799 222.283 284.062 222.7 284.233 223.157C284.404 223.615 284.48 224.102 284.456 224.59Z" fill="#263238"/>
<path d="M281.89 71.3454C287.138 66.2127 287.417 57.9856 282.512 52.9696C277.607 47.9537 269.375 48.0483 264.127 53.181C258.878 58.3137 258.599 66.5408 263.505 71.5568C268.41 76.5727 276.641 76.4781 281.89 71.3454Z" fill="#BC39CE"/>
<path d="M297.673 91.8914C294.549 95.9846 290.528 99.3076 285.92 101.605C281.311 103.903 276.238 105.114 271.088 105.146C266.095 105.189 261.168 104.002 256.742 101.69C252.316 99.3785 248.526 96.0134 245.707 91.8914C251.802 85.822 261.445 81.8594 272.129 81.8594C282.813 81.8594 292.118 85.822 297.673 91.8914Z" fill="#BC39CE"/>
<path opacity="0.1" d="M281.89 71.3454C287.138 66.2127 287.417 57.9856 282.512 52.9696C277.607 47.9537 269.375 48.0483 264.127 53.181C258.878 58.3137 258.599 66.5408 263.505 71.5568C268.41 76.5727 276.641 76.4781 281.89 71.3454Z" fill="white"/>
<path opacity="0.1" d="M297.673 91.8914C294.549 95.9846 290.528 99.3076 285.92 101.605C281.311 103.903 276.238 105.114 271.088 105.146C266.095 105.189 261.168 104.002 256.742 101.69C252.316 99.3785 248.526 96.0134 245.707 91.8914C251.802 85.822 261.445 81.8594 272.129 81.8594C282.813 81.8594 292.118 85.822 297.673 91.8914Z" fill="white"/>
<path d="M113.172 178.43C111.981 181.038 110.727 183.91 109.636 186.693C108.545 189.477 107.429 192.349 106.463 195.208C104.492 200.843 102.99 206.631 101.974 212.513L101.698 214.357C101.672 214.673 101.702 214.991 101.786 215.297C102.082 216.336 102.548 217.32 103.165 218.206C104.776 220.502 106.644 222.606 108.733 224.476C110.936 226.525 113.246 228.455 115.655 230.257C118.063 232.113 120.596 233.919 123.091 235.625L120.746 240.026C114.788 237.43 109.132 234.188 103.88 230.358C101.078 228.314 98.5498 225.921 96.3561 223.235C95.0558 221.636 94.0418 219.825 93.359 217.88C92.962 216.666 92.7589 215.396 92.7571 214.118C92.7571 213.817 92.7571 213.379 92.7571 213.165V212.551L92.8825 211.297C93.6014 204.764 94.9752 198.319 96.9831 192.061C97.9612 188.976 99.002 185.903 100.193 182.906C101.385 179.909 102.614 176.975 104.131 173.928L113.172 178.43Z" fill="#E58A7B"/>
<path d="M121.323 234.848L130.189 230.358L127.894 240.089C127.894 240.089 121.812 241.795 118.991 238.835L121.323 234.848Z" fill="#E58A7B"/>
<path d="M138.302 231.951L135.945 240.002L127.894 240.089L130.189 230.358L138.302 231.951Z" fill="#E58A7B"/>
<path d="M150.817 131.48C151.292 133.218 151.952 134.9 152.786 136.496C152.542 136.773 152.228 136.978 151.877 137.091C151.526 137.204 151.151 137.219 150.792 137.136L150.817 131.48Z" fill="#DF5753"/>
<path d="M150.554 131.555C151.073 131.555 151.494 130.909 151.494 130.113C151.494 129.317 151.073 128.671 150.554 128.671C150.035 128.671 149.613 129.317 149.613 130.113C149.613 130.909 150.035 131.555 150.554 131.555Z" fill="#263238"/>
<path d="M150.278 128.721L152.184 128.182C152.184 128.182 151.256 129.662 150.278 128.721Z" fill="#263238"/>
<path d="M126.327 140.685C127.468 146.516 128.609 157.212 124.521 161.112C124.521 161.112 126.126 167.031 136.973 167.031C148.899 167.031 142.666 161.112 142.666 161.112C136.158 159.557 136.321 154.729 137.462 150.19L126.327 140.685Z" fill="#E58A7B"/>
<path d="M123.154 127.392C123.756 137.136 123.806 141.274 128.722 146.278C136.133 153.802 147.971 150.942 150.291 141.262C152.385 132.484 151.056 118.037 141.513 114.163C139.418 113.3 137.138 112.985 134.888 113.249C132.638 113.514 130.492 114.347 128.654 115.672C126.816 116.996 125.346 118.768 124.384 120.819C123.422 122.87 122.998 125.132 123.154 127.392Z" fill="#E58A7B"/>
<path d="M124.12 116.432C119.229 118.213 112.708 116.884 115.266 131.97C117.975 147.945 113.812 153.2 113.812 153.2C113.812 153.2 132.358 157.15 151.294 152.961C151.294 152.961 145.513 142.854 147.131 135.405C149.2 126 147.569 122.527 147.569 122.527C147.569 122.527 130.992 113.924 124.12 116.432Z" fill="#263238"/>
<path d="M144.811 132.471C144.816 134.323 145.346 136.137 146.341 137.7C147.67 139.731 149.237 138.954 149.626 136.797C149.977 134.903 149.714 131.555 148.021 130.251C146.328 128.947 144.836 130.226 144.811 132.471Z" fill="#E58A7B"/>
<path d="M119.869 118.075C118.464 114.124 125.16 108.043 139.331 110.551C153.501 113.059 154.115 124.859 154.115 124.859L151.256 121.448L151.382 125.034L136.823 127.831L119.869 118.075Z" fill="#263238"/>
<path d="M121.072 161.777C120.989 161.204 121.132 160.622 121.472 160.153C121.811 159.685 122.32 159.367 122.891 159.269C127.305 158.541 137.337 157.062 142.378 157.764C146.14 158.291 147.118 160.473 147.281 162.266C147.307 162.58 147.265 162.896 147.158 163.192C147.051 163.488 146.882 163.759 146.662 163.984C146.443 164.21 146.177 164.386 145.884 164.501C145.59 164.615 145.276 164.665 144.961 164.648L123.167 163.67C122.653 163.644 122.164 163.442 121.782 163.097C121.4 162.752 121.15 162.285 121.072 161.777Z" fill="#BC39CE"/>
<path opacity="0.6" d="M121.072 161.777C120.989 161.204 121.132 160.622 121.472 160.153C121.811 159.685 122.32 159.367 122.891 159.269C127.305 158.541 137.337 157.062 142.378 157.764C146.14 158.291 147.118 160.473 147.281 162.266C147.307 162.58 147.265 162.896 147.158 163.192C147.051 163.488 146.882 163.759 146.662 163.984C146.443 164.21 146.177 164.386 145.884 164.501C145.59 164.615 145.276 164.665 144.961 164.648L123.167 163.67C122.653 163.644 122.164 163.442 121.782 163.097C121.4 162.752 121.15 162.285 121.072 161.777Z" fill="black"/>
<path d="M133.675 380.851L141.763 386.469L155.294 368.122L147.206 362.517L133.675 380.851Z" fill="#E58A7B"/>
<path d="M114.815 380.487L123.355 385.352L135.33 365.953L126.791 361.087L114.815 380.487Z" fill="#E58A7B"/>
<path d="M155.282 368.122L148.309 377.578L140.221 371.972L147.193 362.517L155.282 368.122Z" fill="#CF6F64"/>
<path d="M126.778 361.087L135.33 365.965L129.161 375.96L120.608 371.082L126.778 361.087Z" fill="#CF6F64"/>
<path d="M140.497 223.022C140.497 223.022 172.073 262.812 166.141 300.871C161.363 331.606 133.65 373.227 133.65 373.227L120.621 366.756C129.805 348.354 137.642 329.31 144.071 309.774C146.053 303.709 146.632 297.273 145.763 290.951C144.894 284.63 142.6 278.588 139.055 273.283C123.054 249.921 97.422 263.828 114.664 223.022H140.497Z" fill="#BC39CE"/>
<path opacity="0.6" d="M140.497 223.022C140.497 223.022 172.073 262.812 166.141 300.871C161.363 331.606 133.65 373.227 133.65 373.227L120.621 366.756C129.805 348.354 137.642 329.31 144.071 309.774C146.053 303.709 146.632 297.273 145.763 290.951C144.894 284.63 142.6 278.588 139.055 273.283C123.054 249.921 97.422 263.828 114.664 223.022H140.497Z" fill="black"/>
<path opacity="0.4" d="M155.984 248.579L151.394 244.014C151.394 244.378 160.285 299.265 162.78 314.69C164.253 310.184 165.381 305.573 166.154 300.896C169.088 282.224 162.956 263.15 155.984 248.579Z" fill="black"/>
<path d="M154.592 223.022C154.592 223.022 192.613 273.032 193.692 303.015C194.582 328.095 152.31 376.688 152.31 376.688L140.02 368.737C140.02 368.737 164.762 334.227 170.994 306.037C168.586 278.098 117.674 223.022 117.674 223.022H154.592Z" fill="#BC39CE"/>
<path opacity="0.6" d="M154.592 223.022C154.592 223.022 192.613 273.032 193.692 303.015C194.582 328.095 152.31 376.688 152.31 376.688L140.02 368.737C140.02 368.737 164.762 334.227 170.994 306.037C168.586 278.098 117.674 223.022 117.674 223.022H154.592Z" fill="black"/>
<path d="M107.554 163.344C103.491 164.31 99.5914 179.082 99.5914 179.082L115.48 189.691C115.48 189.691 120.771 178.004 118.916 172.887C116.997 167.558 112.658 162.128 107.554 163.344Z" fill="#BC39CE"/>
<path opacity="0.2" d="M110.664 172.862L109.561 185.74L115.467 189.703C117.098 186.032 118.305 182.186 119.066 178.241L110.664 172.862Z" fill="black"/>
<path d="M159.294 163.632C159.294 163.632 163.984 165.275 154.592 223.009H114.639C115.317 206.707 115.329 196.675 107.554 163.344C113.148 162.191 118.819 161.445 124.521 161.112C130.562 160.679 136.626 160.679 142.666 161.112C150.466 161.827 159.294 163.632 159.294 163.632Z" fill="#BC39CE"/>
<path d="M163.357 172.862C164.26 175.37 165.213 178.067 166.216 180.662C167.22 183.258 168.173 185.929 169.188 188.563L172.261 196.438L173.038 198.406L173.439 199.385L173.628 199.874C173.628 199.961 173.628 199.961 173.628 199.949C173.398 199.626 173.098 199.36 172.75 199.171C172.254 198.879 171.694 198.712 171.12 198.682C170.642 198.667 170.167 198.757 169.728 198.946C169.151 199.209 169.151 199.322 169.163 199.309C169.268 199.226 169.36 199.129 169.439 199.021C170.133 198.109 170.734 197.131 171.232 196.099C171.822 194.945 172.386 193.716 172.95 192.475C174.054 189.967 175.07 187.371 176.085 184.75C177.101 182.129 178.067 179.484 179.007 176.813L181.866 168.812L186.694 170.066C185.741 175.784 184.512 181.352 183.033 187.02C182.318 189.842 181.478 192.638 180.525 195.46C180.048 196.877 179.521 198.281 178.919 199.723C178.292 201.288 177.52 202.791 176.612 204.212C176.279 204.691 175.91 205.143 175.509 205.567C174.868 206.258 174.091 206.809 173.226 207.184C172.459 207.514 171.628 207.668 170.794 207.636C169.859 207.601 168.948 207.329 168.148 206.846C167.203 206.256 166.419 205.442 165.865 204.476C165.677 204.15 165.514 203.824 165.401 203.585L165.163 203.109L164.687 202.131L163.733 200.187C162.479 197.579 161.225 194.945 160.135 192.299C159.044 189.653 157.89 186.97 156.811 184.274C155.733 181.578 154.767 178.882 153.852 175.972L163.357 172.862Z" fill="#E58A7B"/>
<path d="M159.294 163.633C164.097 164.774 169.502 178.969 169.502 178.969L155.219 191.12C155.219 191.12 145.977 175.646 147.845 170.542C149.789 165.225 153.024 162.14 159.294 163.633Z" fill="#BC39CE"/>
<path d="M184.136 164.323L189.152 160.134L192.638 165.564L190.067 170.091C190.067 170.091 185.979 173.853 182.368 171.934C181.795 170.646 181.657 169.206 181.976 167.832C182.295 166.459 183.054 165.226 184.136 164.323Z" fill="#E58A7B"/>
<path d="M198.206 160.147L197.83 161.514L189.892 162.843L189.114 160.134L198.206 160.147Z" fill="#E58A7B"/>
<path d="M153.288 377.327L138.967 368.072L141.538 363.608L157.627 373.502L153.288 377.327Z" fill="#BC39CE"/>
<path d="M128.96 384.7C127.704 384.547 126.496 384.119 125.424 383.446C125.38 383.431 125.341 383.402 125.314 383.364C125.287 383.326 125.272 383.28 125.272 383.233C125.272 383.186 125.287 383.141 125.314 383.102C125.341 383.064 125.38 383.035 125.424 383.02C125.813 382.895 129.186 381.854 130.164 382.656C130.274 382.748 130.357 382.867 130.406 383.001C130.454 383.136 130.466 383.281 130.44 383.421C130.422 383.647 130.348 383.865 130.222 384.053C130.097 384.242 129.926 384.396 129.725 384.5C129.49 384.628 129.228 384.697 128.96 384.7ZM126.139 383.321C127.706 384.123 128.96 384.412 129.562 384.111C129.693 384.038 129.803 383.933 129.882 383.806C129.961 383.679 130.007 383.533 130.013 383.384C130.013 383.183 130.013 383.095 129.901 383.045C129.374 382.619 127.493 382.945 126.113 383.321H126.139Z" fill="#263238"/>
<path d="M125.512 383.534C125.445 383.533 125.382 383.506 125.336 383.459C125.317 383.424 125.308 383.385 125.308 383.346C125.308 383.306 125.317 383.268 125.336 383.233C125.336 383.12 126.151 380.399 127.43 379.784C127.594 379.71 127.771 379.671 127.951 379.671C128.13 379.671 128.308 379.71 128.471 379.784C128.647 379.84 128.8 379.953 128.904 380.105C129.009 380.257 129.059 380.44 129.048 380.625C128.96 381.753 126.665 383.308 125.612 383.572L125.512 383.534ZM127.944 380.11C127.822 380.114 127.703 380.144 127.593 380.198C126.816 380.574 126.176 382.042 125.863 382.932C126.966 382.468 128.484 381.239 128.534 380.549C128.534 380.437 128.534 380.299 128.245 380.173C128.151 380.123 128.05 380.089 127.944 380.073V380.11Z" fill="#263238"/>
<path d="M146.855 390.117C145.438 390.117 143.469 388.299 142.39 387.183C142.363 387.145 142.348 387.099 142.348 387.051C142.348 387.004 142.363 386.958 142.39 386.92C142.415 386.879 142.45 386.846 142.492 386.824C142.534 386.802 142.581 386.792 142.629 386.794C143.13 386.794 147.482 387.446 148.096 388.675C148.161 388.785 148.196 388.911 148.196 389.039C148.196 389.167 148.161 389.292 148.096 389.403C148.004 389.594 147.865 389.759 147.691 389.882C147.518 390.004 147.317 390.081 147.105 390.105L146.855 390.117ZM143.218 387.359C144.798 388.888 146.19 389.741 146.98 389.641C147.118 389.623 147.25 389.571 147.364 389.49C147.478 389.409 147.57 389.302 147.632 389.177C147.66 389.134 147.675 389.084 147.675 389.033C147.675 388.981 147.66 388.931 147.632 388.888C147.306 388.211 144.986 387.634 143.218 387.359Z" fill="#263238"/>
<path d="M143.356 387.296C143.074 387.304 142.793 387.283 142.516 387.233C142.477 387.227 142.441 387.212 142.41 387.187C142.379 387.163 142.355 387.132 142.34 387.095C142.322 387.058 142.312 387.018 142.312 386.976C142.312 386.935 142.322 386.894 142.34 386.857C142.415 386.769 144.108 384.725 145.713 384.587C146.168 384.552 146.618 384.696 146.967 384.989C147.457 385.415 147.431 385.791 147.306 386.029C146.993 386.882 144.823 387.296 143.356 387.296ZM143.03 386.832C144.434 386.907 146.679 386.443 146.967 385.829C146.967 385.829 147.068 385.628 146.742 385.352C146.612 385.239 146.46 385.154 146.297 385.103C146.133 385.051 145.96 385.033 145.789 385.051C144.707 385.353 143.745 385.979 143.03 386.845V386.832Z" fill="#263238"/>
<path d="M125.85 382.18L115.216 379.17C115.033 379.115 114.836 379.129 114.662 379.21C114.488 379.291 114.351 379.433 114.276 379.609L110.689 387.672C110.605 387.879 110.566 388.101 110.573 388.324C110.581 388.547 110.636 388.765 110.734 388.965C110.832 389.166 110.972 389.343 111.144 389.485C111.315 389.627 111.515 389.732 111.73 389.791C115.492 390.77 117.298 391.045 121.975 392.387C124.859 393.19 128.973 394.682 132.948 395.811C136.923 396.939 138.252 393.064 136.71 392.237C129.738 388.55 129.186 385.967 127.28 383.208C126.938 382.708 126.432 382.344 125.85 382.18Z" fill="#BC39CE"/>
<path d="M142.679 385.716L133.6 379.446C133.446 379.334 133.256 379.283 133.067 379.301C132.877 379.32 132.701 379.407 132.572 379.547L126.552 386.017C126.406 386.185 126.296 386.381 126.231 386.594C126.167 386.807 126.148 387.031 126.176 387.252C126.205 387.472 126.28 387.684 126.397 387.874C126.513 388.063 126.669 388.225 126.853 388.35C130.051 390.494 131.706 391.359 135.707 394.131C138.215 395.836 143.068 399.623 146.453 401.981C149.839 404.338 152.36 401.103 151.156 399.824C145.764 394.068 144.585 390.457 143.695 387.184C143.54 386.59 143.18 386.07 142.679 385.716Z" fill="#BC39CE"/>
<path d="M135.318 374.054L118.953 365.916L120.646 361.477L138.127 370.054L135.318 374.054Z" fill="#BC39CE"/>
<path d="M114.037 220.665L112.658 224.276C112.52 224.552 112.846 224.84 113.31 224.84H154.792C155.156 224.84 155.457 224.665 155.482 224.439L155.833 220.853C155.833 220.614 155.545 220.401 155.156 220.401H114.69C114.568 220.39 114.445 220.408 114.331 220.454C114.218 220.499 114.117 220.572 114.037 220.665Z" fill="#BC39CE"/>
<path opacity="0.4" d="M114.037 220.665L112.658 224.276C112.52 224.552 112.846 224.84 113.31 224.84H154.792C155.156 224.84 155.457 224.665 155.482 224.439L155.833 220.853C155.833 220.614 155.545 220.401 155.156 220.401H114.69C114.568 220.39 114.445 220.408 114.331 220.454C114.218 220.499 114.117 220.572 114.037 220.665Z" fill="white"/>
<path d="M120.571 225.191H119.48C119.267 225.191 119.104 225.078 119.116 224.94L119.63 220.288C119.63 220.163 119.831 220.05 120.044 220.05H121.135C121.348 220.05 121.511 220.163 121.499 220.288L120.985 224.94C120.972 225.078 120.784 225.191 120.571 225.191Z" fill="#BC39CE"/>
<path d="M146.152 225.191H145.074C144.861 225.191 144.698 225.078 144.71 224.94L145.212 220.288C145.212 220.163 145.425 220.05 145.638 220.05H146.717C146.93 220.05 147.105 220.163 147.08 220.288L146.579 224.94C146.516 225.078 146.378 225.191 146.152 225.191Z" fill="#BC39CE"/>
<g style="mix-blend-mode:multiply">
<path d="M119.618 437.556C138.172 437.556 153.212 436.467 153.212 435.124C153.212 433.78 138.172 432.691 119.618 432.691C101.064 432.691 86.0231 433.78 86.0231 435.124C86.0231 436.467 101.064 437.556 119.618 437.556Z" fill="#F5F5F5"/>
</g>
<path d="M140.083 431.688C134.139 429.957 127.543 427.738 123.555 425.418C123.442 425.343 123.317 425.305 123.204 425.242V398.331H135.23C136.143 398.277 137.001 397.877 137.628 397.211C138.255 396.546 138.605 395.666 138.605 394.751C138.605 393.837 138.255 392.957 137.628 392.291C137.001 391.626 136.143 391.225 135.23 391.171H123.267V268.505H116.044V391.171H104.093C103.605 391.142 103.117 391.213 102.657 391.38C102.198 391.547 101.777 391.806 101.421 392.141C101.066 392.477 100.782 392.881 100.588 393.33C100.395 393.779 100.295 394.263 100.295 394.751C100.295 395.24 100.395 395.724 100.588 396.173C100.782 396.621 101.066 397.026 101.421 397.361C101.777 397.697 102.198 397.956 102.657 398.122C103.117 398.289 103.605 398.36 104.093 398.331H116.044V425.205C115.931 425.205 115.818 425.305 115.705 425.38C111.655 427.738 105.109 429.957 99.165 431.65C98.7635 431.772 98.4187 432.033 98.1931 432.387C97.9675 432.74 97.876 433.163 97.9351 433.578C97.9942 433.993 98.2 434.374 98.5154 434.65C98.8307 434.927 99.2346 435.082 99.6541 435.086H139.594C139.995 435.059 140.374 434.895 140.669 434.622C140.963 434.348 141.155 433.982 141.212 433.585C141.27 433.187 141.189 432.782 140.983 432.437C140.778 432.091 140.46 431.827 140.083 431.688Z" fill="#E0E0E0"/>
<path d="M141.926 256.015H97.3342C93.7467 256.015 90.8385 258.923 90.8385 262.51V275.765C90.8385 279.353 93.7467 282.261 97.3342 282.261H141.926C145.514 282.261 148.422 279.353 148.422 275.765V262.51C148.422 258.923 145.514 256.015 141.926 256.015Z" fill="#BC39CE"/>
<path d="M96.9203 282.273V284.556C96.9203 286.437 98.9644 287.967 101.472 287.967H137.838C140.346 287.967 142.39 286.437 142.39 284.556V282.273H96.9203Z" fill="#BC39CE"/>
<path opacity="0.3" d="M96.9203 282.273V284.556C96.9203 286.437 98.9644 287.967 101.472 287.967H137.838C140.346 287.967 142.39 286.437 142.39 284.556V282.273H96.9203Z" fill="white"/>
<defs>
<filter id="filter0_f_603_5920" x="0" y="399.8" width="526.276" height="68.3906" filterUnits="userSpaceOnUse" color-interpolation-filters="sRGB">
<feFlood flood-opacity="0" result="BackgroundImageFix"/>
<feBlend mode="normal" in="SourceGraphic" in2="BackgroundImageFix" result="shape"/>
<feGaussianBlur stdDeviation="10" result="effect1_foregroundBlur_603_5920"/>
</filter>
</defs>
</svg>
