<svg width="285" height="21" viewBox="0 0 285 21" fill="none" xmlns="http://www.w3.org/2000/svg">
<path d="M49.3533 20.4979C50.0422 19.3055 50.6615 18.2387 51.2867 17.1719C53.0291 14.211 54.7888 11.2558 56.5138 8.28347C56.8322 7.73579 57.0116 7.77573 57.2605 8.28347C57.3358 8.43751 57.411 8.60295 57.5268 8.71705C58.5456 9.72684 58.2909 10.6853 57.5731 11.7749C56.6643 13.1555 55.9002 14.6331 55.0956 16.0822C54.7135 16.7725 54.7656 16.841 55.5818 16.841C60.45 16.841 65.3124 16.841 70.1806 16.841C71.0952 16.841 71.0952 16.841 70.6958 17.6283C70.2848 18.4327 69.868 19.2314 69.4686 20.0415C69.3239 20.3267 69.156 20.4979 68.7971 20.4979C62.3718 20.4922 55.9523 20.4979 49.3533 20.4979Z" fill="url(#paint0_linear_603_4820)"/>
<path d="M64.3399 12.8817C63.4253 12.8817 62.5107 12.8646 61.5961 12.8931C61.1272 12.9102 60.8262 12.7619 60.5715 12.3511C59.518 10.6795 58.4355 9.02509 57.3473 7.37635C56.9247 6.73168 56.7858 6.73168 56.398 7.38776C54.1925 11.1245 51.9986 14.8727 49.799 18.6152C49.5038 19.1172 49.2086 19.6136 48.8555 20.2183C48.2303 19.0374 47.6572 17.9477 47.0784 16.8638C46.9337 16.5956 47.0668 16.3902 47.1941 16.1849C50.3721 10.9534 53.5442 5.7219 56.7279 0.490419C56.7511 0.450484 56.8032 0.433368 56.9189 0.353498C57.6309 1.51161 58.3487 2.66402 59.0549 3.82214C60.7162 6.54912 62.3833 9.27611 64.0389 12.0088C64.1778 12.237 64.2588 12.4937 64.3688 12.739C64.3572 12.7847 64.3514 12.836 64.3399 12.8817Z" fill="url(#paint1_linear_603_4820)"/>
<path d="M63.2227 16.3903C60.9015 16.3903 58.5803 16.3789 56.2591 16.396C55.7034 16.4017 55.5181 16.3104 55.9002 15.7856C56.2301 15.3349 56.5658 14.8613 56.7627 14.3479C57.0637 13.572 57.5904 13.4237 58.3719 13.4465C60.2242 13.5036 62.0766 13.4636 63.9289 13.4636C64.1257 13.4636 64.3283 13.475 64.5193 13.4579C65.2892 13.378 65.3818 13.2069 64.9824 12.5451C63.8884 10.7309 62.777 8.92245 61.6772 7.10826C60.3863 4.986 59.0954 2.85803 57.8162 0.73007C57.4283 0.0854055 57.4689 0.0340608 58.2329 0.0283558C58.8523 0.0226508 59.4717 0.0797015 60.0853 0.0112415C60.7799 -0.0629234 61.1388 0.233737 61.4803 0.787121C64.5193 5.75617 67.5873 10.7138 70.6378 15.6772C70.7478 15.854 70.9562 16.0423 70.8115 16.2705C70.6726 16.4873 70.4063 16.3903 70.1921 16.3903C67.8651 16.396 65.5439 16.3903 63.2227 16.3903Z" fill="url(#paint2_linear_603_4820)"/>
<path d="M64.3399 12.8817C64.3457 12.836 64.3514 12.7849 64.363 12.7393C64.4556 12.8021 64.4556 12.8474 64.3399 12.8817Z" fill="url(#paint3_linear_603_4820)"/>
<path d="M5.27917 20.7319H0V1.18084H11.7218V5.41966H5.27917V9.15072H11.224V13.3895H5.27917V20.7319Z" fill="url(#paint4_linear_603_4820)"/>
<path d="M15.6175 20.7319V1.18084H21.0009V20.7319H15.6175Z" fill="url(#paint5_linear_603_4820)"/>
<path d="M44.8151 20.7319H37.7878L30.5405 6.96001H30.4189C30.4652 7.37647 30.5057 7.88422 30.5405 8.47183C30.5752 9.05944 30.6099 9.65847 30.6331 10.2689C30.6562 10.8793 30.6736 11.4327 30.6736 11.9176V20.7319H25.927V1.18084H32.9254L40.1437 14.7644H40.2247C40.1958 14.3366 40.1726 13.8402 40.1437 13.2754C40.1148 12.7106 40.0916 12.1344 40.0684 11.5582C40.0453 10.982 40.0337 10.4686 40.0337 10.0179V1.18084H44.8093V20.7319H44.8151Z" fill="url(#paint6_linear_603_4820)"/>
<path d="M92.2003 20.7319H85.1729L77.9257 6.96001H77.8041C77.8504 7.37647 77.8909 7.88422 77.9257 8.47183C77.9604 9.05944 77.9951 9.65847 78.0183 10.2689C78.0414 10.8793 78.0588 11.4327 78.0588 11.9176V20.7319H73.3122V1.18084H80.3105L87.5289 14.7644H87.6099C87.581 14.3366 87.5578 13.8402 87.5289 13.2754C87.4999 12.7106 87.4768 12.1344 87.4536 11.5582C87.4305 10.982 87.4189 10.4686 87.4189 10.0179V1.18084H92.1945V20.7319H92.2003Z" fill="url(#paint7_linear_603_4820)"/>
<path d="M105.954 5.23139C105.323 5.23139 104.756 5.3626 104.258 5.62503C103.76 5.88746 103.337 6.2697 102.984 6.76603C102.631 7.26237 102.365 7.87281 102.18 8.59163C101.995 9.31046 101.902 10.1206 101.902 11.0334C101.902 12.2657 102.058 13.2983 102.377 14.1369C102.695 14.9755 103.175 15.6088 103.824 16.0367C104.472 16.4645 105.282 16.6756 106.261 16.6756C107.146 16.6756 107.997 16.5558 108.819 16.3162C109.641 16.0766 110.463 15.7856 111.297 15.449V19.916C110.417 20.2983 109.52 20.5778 108.605 20.7433C107.69 20.9087 106.712 21 105.682 21C103.528 21 101.769 20.5778 100.397 19.7392C99.025 18.9006 98.0178 17.7253 97.3694 16.2306C96.7211 14.7359 96.397 12.9959 96.397 11.0163C96.397 9.53866 96.6054 8.18087 97.0279 6.9543C97.4505 5.72773 98.0641 4.65519 98.8803 3.7538C99.6964 2.85241 100.698 2.15069 101.896 1.65436C103.094 1.15802 104.466 0.912709 106.012 0.912709C106.973 0.912709 107.98 1.02111 109.045 1.2379C110.11 1.45469 111.146 1.80839 112.159 2.28761L110.515 6.44656C109.792 6.10996 109.057 5.82471 108.316 5.59081C107.575 5.3569 106.787 5.23139 105.954 5.23139Z" fill="url(#paint8_linear_603_4820)"/>
<path d="M115.794 20.7319V1.18084H121.178V20.7319H115.794Z" fill="url(#paint9_linear_603_4820)"/>
<path d="M138.277 20.7319L137.299 17.0693H130.856L129.849 20.7319H123.962L130.434 1.10098H137.583L144.135 20.7319H138.277ZM136.188 12.7335L135.331 9.52725C135.238 9.17925 135.111 8.68291 134.937 8.03825C134.764 7.39358 134.596 6.7261 134.428 6.03009C134.26 5.33408 134.133 4.76929 134.04 4.3243C133.959 4.76929 133.843 5.32267 133.693 5.97304C133.542 6.62341 133.392 7.27949 133.23 7.91845C133.068 8.5574 132.934 9.09367 132.819 9.52155L131.962 12.7278H136.188V12.7335Z" fill="url(#paint10_linear_603_4820)"/>
<path d="M146.92 20.7319V1.18084H152.28V16.4645H159.921V20.7319H146.92Z" fill="url(#paint11_linear_603_4820)"/>
<path d="M197.894 1.18084L193.008 20.7319H186.67L184.771 12.2143C184.736 12.0546 184.678 11.7807 184.603 11.3985C184.528 11.0163 184.441 10.577 184.343 10.0863C184.244 9.59571 184.163 9.11079 184.082 8.63728C184.001 8.16376 183.949 7.7587 183.914 7.42781C183.88 7.7587 183.822 8.16376 183.741 8.63728C183.66 9.11079 183.573 9.59571 183.474 10.0863C183.376 10.577 183.289 11.0106 183.202 11.3985C183.115 11.7864 183.058 12.0546 183.017 12.2143L181.113 20.7319H174.774L169.865 1.18084H175.035L177.194 10.982C177.246 11.2216 177.321 11.5639 177.42 12.0032C177.518 12.4425 177.616 12.9274 177.721 13.4466C177.825 13.9657 177.923 14.4678 178.01 14.9527C178.097 15.4376 178.166 15.837 178.201 16.1565C178.27 15.6031 178.369 14.9755 178.49 14.2738C178.612 13.5721 178.751 12.8533 178.896 12.1287C179.04 11.4042 179.185 10.7253 179.324 10.1035C179.463 9.48162 179.579 8.97387 179.677 8.58022L181.425 1.18655H186.392L188.088 8.58022C188.18 8.96246 188.296 9.4702 188.435 10.0978C188.574 10.7253 188.719 11.4042 188.869 12.1344C189.02 12.8647 189.159 13.5835 189.28 14.2966C189.402 15.0098 189.5 15.6259 189.564 16.1622C189.616 15.7172 189.709 15.1524 189.836 14.4735C189.963 13.7946 190.091 13.1271 190.224 12.4824C190.357 11.8378 190.455 11.3471 190.531 11.0163L192.73 1.18655H197.894V1.18084Z" fill="url(#paint12_linear_603_4820)"/>
<path d="M213.268 20.7319L212.29 17.0693H205.847L204.84 20.7319H198.953L205.425 1.10098H212.573L219.126 20.7319H213.268ZM211.178 12.7335L210.322 9.52725C210.229 9.17925 210.102 8.68291 209.928 8.03825C209.754 7.39358 209.587 6.7261 209.419 6.03009C209.251 5.33408 209.123 4.76929 209.031 4.3243C208.95 4.76929 208.834 5.32267 208.684 5.97304C208.533 6.62341 208.383 7.27949 208.22 7.91845C208.058 8.5574 207.925 9.09367 207.809 9.52155L206.953 12.7278H211.178V12.7335Z" fill="url(#paint13_linear_603_4820)"/>
<path d="M221.91 20.7319V1.18084H227.271V16.4645H234.912V20.7319H221.91Z" fill="url(#paint14_linear_603_4820)"/>
<path d="M238.72 20.7319V1.18084H244.081V16.4645H251.722V20.7319H238.72Z" fill="url(#paint15_linear_603_4820)"/>
<path d="M267.304 20.7319H255.53V1.18084H267.304V5.41966H260.885V8.49465H266.83V12.7335H260.885V16.4246H267.304V20.7319Z" fill="url(#paint16_linear_603_4820)"/>
<path d="M280.172 20.7319H274.812V5.49953H269.967V1.18084H285V5.49953H280.172V20.7319Z" fill="url(#paint17_linear_603_4820)"/>
<defs>
<linearGradient id="paint0_linear_603_4820" x1="-9.79687" y1="-3.57002" x2="264.58" y2="106.05" gradientUnits="userSpaceOnUse">
<stop stop-color="#3167AE"/>
<stop offset="0.244792" stop-color="#2D85C5"/>
<stop offset="0.604167" stop-color="#9E4ACC"/>
<stop offset="1" stop-color="#CD2FCF"/>
</linearGradient>
<linearGradient id="paint1_linear_603_4820" x1="-9.79687" y1="-3.57002" x2="264.58" y2="106.05" gradientUnits="userSpaceOnUse">
<stop stop-color="#3167AE"/>
<stop offset="0.244792" stop-color="#2D85C5"/>
<stop offset="0.604167" stop-color="#9E4ACC"/>
<stop offset="1" stop-color="#CD2FCF"/>
</linearGradient>
<linearGradient id="paint2_linear_603_4820" x1="-9.79687" y1="-3.57002" x2="264.58" y2="106.05" gradientUnits="userSpaceOnUse">
<stop stop-color="#3167AE"/>
<stop offset="0.244792" stop-color="#2D85C5"/>
<stop offset="0.604167" stop-color="#9E4ACC"/>
<stop offset="1" stop-color="#CD2FCF"/>
</linearGradient>
<linearGradient id="paint3_linear_603_4820" x1="-9.79687" y1="-3.57002" x2="264.58" y2="106.05" gradientUnits="userSpaceOnUse">
<stop stop-color="#3167AE"/>
<stop offset="0.244792" stop-color="#2D85C5"/>
<stop offset="0.604167" stop-color="#9E4ACC"/>
<stop offset="1" stop-color="#CD2FCF"/>
</linearGradient>
<linearGradient id="paint4_linear_603_4820" x1="-9.79687" y1="-3.57002" x2="264.58" y2="106.05" gradientUnits="userSpaceOnUse">
<stop stop-color="#3167AE"/>
<stop offset="0.244792" stop-color="#2D85C5"/>
<stop offset="0.604167" stop-color="#9E4ACC"/>
<stop offset="1" stop-color="#CD2FCF"/>
</linearGradient>
<linearGradient id="paint5_linear_603_4820" x1="-9.79687" y1="-3.57002" x2="264.58" y2="106.05" gradientUnits="userSpaceOnUse">
<stop stop-color="#3167AE"/>
<stop offset="0.244792" stop-color="#2D85C5"/>
<stop offset="0.604167" stop-color="#9E4ACC"/>
<stop offset="1" stop-color="#CD2FCF"/>
</linearGradient>
<linearGradient id="paint6_linear_603_4820" x1="-9.79687" y1="-3.57002" x2="264.58" y2="106.05" gradientUnits="userSpaceOnUse">
<stop stop-color="#3167AE"/>
<stop offset="0.244792" stop-color="#2D85C5"/>
<stop offset="0.604167" stop-color="#9E4ACC"/>
<stop offset="1" stop-color="#CD2FCF"/>
</linearGradient>
<linearGradient id="paint7_linear_603_4820" x1="-9.79687" y1="-3.57002" x2="264.58" y2="106.05" gradientUnits="userSpaceOnUse">
<stop stop-color="#3167AE"/>
<stop offset="0.244792" stop-color="#2D85C5"/>
<stop offset="0.604167" stop-color="#9E4ACC"/>
<stop offset="1" stop-color="#CD2FCF"/>
</linearGradient>
<linearGradient id="paint8_linear_603_4820" x1="-9.79687" y1="-3.57002" x2="264.58" y2="106.05" gradientUnits="userSpaceOnUse">
<stop stop-color="#3167AE"/>
<stop offset="0.244792" stop-color="#2D85C5"/>
<stop offset="0.604167" stop-color="#9E4ACC"/>
<stop offset="1" stop-color="#CD2FCF"/>
</linearGradient>
<linearGradient id="paint9_linear_603_4820" x1="-9.79687" y1="-3.57002" x2="264.58" y2="106.05" gradientUnits="userSpaceOnUse">
<stop stop-color="#3167AE"/>
<stop offset="0.244792" stop-color="#2D85C5"/>
<stop offset="0.604167" stop-color="#9E4ACC"/>
<stop offset="1" stop-color="#CD2FCF"/>
</linearGradient>
<linearGradient id="paint10_linear_603_4820" x1="-9.79687" y1="-3.57002" x2="264.58" y2="106.05" gradientUnits="userSpaceOnUse">
<stop stop-color="#3167AE"/>
<stop offset="0.244792" stop-color="#2D85C5"/>
<stop offset="0.604167" stop-color="#9E4ACC"/>
<stop offset="1" stop-color="#CD2FCF"/>
</linearGradient>
<linearGradient id="paint11_linear_603_4820" x1="-9.79687" y1="-3.57002" x2="264.58" y2="106.05" gradientUnits="userSpaceOnUse">
<stop stop-color="#3167AE"/>
<stop offset="0.244792" stop-color="#2D85C5"/>
<stop offset="0.604167" stop-color="#9E4ACC"/>
<stop offset="1" stop-color="#CD2FCF"/>
</linearGradient>
<linearGradient id="paint12_linear_603_4820" x1="-9.79687" y1="-3.57002" x2="264.58" y2="106.05" gradientUnits="userSpaceOnUse">
<stop stop-color="#3167AE"/>
<stop offset="0.244792" stop-color="#2D85C5"/>
<stop offset="0.604167" stop-color="#9E4ACC"/>
<stop offset="1" stop-color="#CD2FCF"/>
</linearGradient>
<linearGradient id="paint13_linear_603_4820" x1="-9.79687" y1="-3.57002" x2="264.58" y2="106.05" gradientUnits="userSpaceOnUse">
<stop stop-color="#3167AE"/>
<stop offset="0.244792" stop-color="#2D85C5"/>
<stop offset="0.604167" stop-color="#9E4ACC"/>
<stop offset="1" stop-color="#CD2FCF"/>
</linearGradient>
<linearGradient id="paint14_linear_603_4820" x1="-9.79687" y1="-3.57002" x2="264.58" y2="106.05" gradientUnits="userSpaceOnUse">
<stop stop-color="#3167AE"/>
<stop offset="0.244792" stop-color="#2D85C5"/>
<stop offset="0.604167" stop-color="#9E4ACC"/>
<stop offset="1" stop-color="#CD2FCF"/>
</linearGradient>
<linearGradient id="paint15_linear_603_4820" x1="-9.79687" y1="-3.57002" x2="264.58" y2="106.05" gradientUnits="userSpaceOnUse">
<stop stop-color="#3167AE"/>
<stop offset="0.244792" stop-color="#2D85C5"/>
<stop offset="0.604167" stop-color="#9E4ACC"/>
<stop offset="1" stop-color="#CD2FCF"/>
</linearGradient>
<linearGradient id="paint16_linear_603_4820" x1="-9.79687" y1="-3.57002" x2="264.58" y2="106.05" gradientUnits="userSpaceOnUse">
<stop stop-color="#3167AE"/>
<stop offset="0.244792" stop-color="#2D85C5"/>
<stop offset="0.604167" stop-color="#9E4ACC"/>
<stop offset="1" stop-color="#CD2FCF"/>
</linearGradient>
<linearGradient id="paint17_linear_603_4820" x1="-9.79687" y1="-3.57002" x2="264.58" y2="106.05" gradientUnits="userSpaceOnUse">
<stop stop-color="#3167AE"/>
<stop offset="0.244792" stop-color="#2D85C5"/>
<stop offset="0.604167" stop-color="#9E4ACC"/>
<stop offset="1" stop-color="#CD2FCF"/>
</linearGradient>
</defs>
</svg>
