<svg width="427" height="371" viewBox="0 0 427 371" fill="none" xmlns="http://www.w3.org/2000/svg">
<path d="M41.7081 371C53.997 349.419 65.0467 330.11 76.1996 310.801C107.283 257.211 138.677 203.723 169.451 149.926C175.131 140.014 178.332 140.736 182.772 149.926C184.115 152.714 185.457 155.709 187.523 157.774C205.698 176.05 201.154 193.398 188.349 213.12C172.136 238.108 158.504 264.852 144.15 291.079C137.334 303.573 138.264 304.812 152.825 304.812C239.673 304.812 326.418 304.812 413.267 304.812C429.583 304.812 429.583 304.812 422.458 319.062C415.126 333.621 407.69 348.077 400.565 362.739C397.983 367.902 394.988 371 388.586 371C273.958 370.897 159.434 371 41.7081 371Z" fill="url(#paint0_linear_603_4819)"/>
<path d="M309.068 233.151C292.752 233.151 276.436 232.841 260.119 233.358C251.754 233.667 246.384 230.983 241.841 223.548C223.046 193.294 203.735 163.349 184.32 133.508C176.782 121.84 174.303 121.84 167.384 133.714C128.039 201.348 88.9006 269.188 49.6587 336.925C44.392 346.011 39.1253 354.995 32.8259 365.94C21.673 344.566 11.4495 324.844 1.12268 305.225C-1.45903 300.372 0.916111 296.654 3.18801 292.937C59.8822 198.25 116.473 103.563 173.271 8.87631C173.684 8.15351 174.613 7.84372 176.679 6.39812C189.38 27.3593 202.186 48.2173 214.784 69.1785C244.422 118.536 274.164 167.892 303.698 217.353C306.177 221.483 307.622 226.13 309.585 230.57C309.378 231.396 309.275 232.325 309.068 233.151Z" fill="url(#paint1_linear_603_4819)"/>
<path d="M289.138 296.655C247.727 296.655 206.317 296.449 164.906 296.758C154.993 296.862 151.688 295.209 158.504 285.71C164.39 277.552 170.379 268.982 173.891 259.689C179.26 245.646 188.658 242.961 202.599 243.374C235.645 244.407 268.691 243.684 301.737 243.684C305.248 243.684 308.862 243.891 312.27 243.581C326.004 242.135 327.657 239.038 320.531 227.06C301.014 194.224 281.186 161.491 261.565 128.656C238.536 90.2438 215.508 51.7288 192.685 13.2139C185.766 1.54579 186.489 0.616482 200.121 0.513225C211.17 0.409968 222.22 1.44255 233.167 0.203466C245.559 -1.13888 251.961 4.2305 258.054 14.2465C312.27 104.184 367.002 193.914 421.424 283.748C423.386 286.949 427.104 290.356 424.522 294.487C422.044 298.41 417.294 296.655 413.473 296.655C371.959 296.758 330.548 296.655 289.138 296.655Z" fill="url(#paint2_linear_603_4819)"/>
<path d="M309.068 233.151C309.171 232.325 309.275 231.4 309.481 230.574C311.134 231.71 311.134 232.531 309.068 233.151Z" fill="url(#paint3_linear_603_4819)"/>
<defs>
<linearGradient id="paint0_linear_603_4819" x1="-14.6781" y1="-63.0704" x2="461.476" y2="-46.9373" gradientUnits="userSpaceOnUse">
<stop stop-color="#3167AE"/>
<stop offset="0.244792" stop-color="#2D85C5"/>
<stop offset="0.604167" stop-color="#9E4ACC"/>
<stop offset="1" stop-color="#CD2FCF"/>
</linearGradient>
<linearGradient id="paint1_linear_603_4819" x1="-14.6781" y1="-63.0704" x2="461.476" y2="-46.9373" gradientUnits="userSpaceOnUse">
<stop stop-color="#3167AE"/>
<stop offset="0.244792" stop-color="#2D85C5"/>
<stop offset="0.604167" stop-color="#9E4ACC"/>
<stop offset="1" stop-color="#CD2FCF"/>
</linearGradient>
<linearGradient id="paint2_linear_603_4819" x1="-14.6781" y1="-63.0704" x2="461.476" y2="-46.9373" gradientUnits="userSpaceOnUse">
<stop stop-color="#3167AE"/>
<stop offset="0.244792" stop-color="#2D85C5"/>
<stop offset="0.604167" stop-color="#9E4ACC"/>
<stop offset="1" stop-color="#CD2FCF"/>
</linearGradient>
<linearGradient id="paint3_linear_603_4819" x1="-14.6781" y1="-63.0704" x2="461.476" y2="-46.9373" gradientUnits="userSpaceOnUse">
<stop stop-color="#3167AE"/>
<stop offset="0.244792" stop-color="#2D85C5"/>
<stop offset="0.604167" stop-color="#9E4ACC"/>
<stop offset="1" stop-color="#CD2FCF"/>
</linearGradient>
</defs>
</svg>
