<svg width="320" height="302" viewBox="0 0 320 302" fill="none" xmlns="http://www.w3.org/2000/svg">
<g filter="url(#filter0_f_603_6224)">
<path d="M160 281.824C237.099 281.824 299.601 278.175 299.601 273.674C299.601 269.172 237.099 265.523 160 265.523C82.9005 265.523 20.399 269.172 20.399 273.674C20.399 278.175 82.9005 281.824 160 281.824Z" fill="#F5F5F5" fill-opacity="0.25"/>
</g>
<path d="M78.7263 105.316C78.5086 105.316 78.2999 105.23 78.1459 105.076C77.992 104.922 77.9055 104.713 77.9055 104.495V38.5723C77.9055 38.3546 77.992 38.1458 78.1459 37.9919C78.2999 37.8379 78.5086 37.7515 78.7263 37.7515C78.944 37.7515 79.1528 37.8379 79.3067 37.9919C79.4606 38.1458 79.5471 38.3546 79.5471 38.5723V104.495C79.5471 104.713 79.4606 104.922 79.3067 105.076C79.1528 105.23 78.944 105.316 78.7263 105.316Z" fill="#C037CF"/>
<path d="M100.701 105.317C100.483 105.317 100.274 105.23 100.12 105.076C99.9663 104.922 99.8798 104.713 99.8798 104.496V38.5726C99.8691 38.4579 99.8824 38.3422 99.919 38.2329C99.9555 38.1236 100.014 38.0231 100.092 37.9379C100.17 37.8527 100.264 37.7847 100.37 37.7381C100.475 37.6915 100.589 37.6675 100.704 37.6675C100.819 37.6675 100.933 37.6915 101.039 37.7381C101.144 37.7847 101.239 37.8527 101.316 37.9379C101.394 38.0231 101.453 38.1236 101.489 38.2329C101.526 38.3422 101.539 38.4579 101.529 38.5726V104.496C101.527 104.714 101.439 104.923 101.284 105.077C101.129 105.23 100.919 105.317 100.701 105.317Z" fill="#C037CF"/>
<path d="M100.701 61.3673C100.483 61.368 100.273 61.2826 100.117 61.1297L89.7135 50.7256L79.3094 61.1009C79.1508 61.2337 78.9481 61.3023 78.7414 61.2932C78.5346 61.284 78.3388 61.1978 78.1924 61.0515C78.0461 60.9051 77.9599 60.7093 77.9507 60.5026C77.9416 60.2958 78.0102 60.0931 78.1431 59.9345L88.5471 49.5809L78.1431 39.1553C78.0178 39.0413 77.9306 38.8917 77.893 38.7267C77.8554 38.5616 77.8693 38.3889 77.9329 38.232C77.9964 38.0751 78.1065 37.9414 78.2484 37.849C78.3903 37.7566 78.557 37.7099 78.7263 37.7153H100.701C100.864 37.7156 101.024 37.7643 101.16 37.8553C101.295 37.9463 101.401 38.0754 101.464 38.2265C101.527 38.3773 101.543 38.5436 101.511 38.704C101.479 38.8643 101.4 39.0114 101.284 39.1265L90.8799 49.5809L101.284 59.9848C101.413 60.097 101.504 60.2468 101.545 60.4133C101.585 60.5798 101.572 60.7547 101.507 60.9134C101.443 61.0722 101.331 61.2069 101.186 61.2986C101.041 61.3903 100.872 61.4344 100.701 61.4248V61.3673ZM80.7135 39.3929L89.7135 48.3929L98.7135 39.3929H80.7135Z" fill="#C037CF"/>
<path d="M78.7262 39.3927C78.5631 39.3938 78.4033 39.3463 78.2673 39.2562C78.1312 39.1661 78.0252 39.0375 77.9626 38.8868C77.9 38.7361 77.8837 38.5702 77.9159 38.4103C77.948 38.2503 78.0271 38.1035 78.143 37.9887L89.1302 27.0015C89.2066 26.9245 89.2974 26.8633 89.3975 26.8215C89.4976 26.7798 89.605 26.7583 89.7134 26.7583C89.8219 26.7583 89.9293 26.7798 90.0294 26.8215C90.1295 26.8633 90.2203 26.9245 90.2966 27.0015L101.284 37.9887C101.361 38.065 101.422 38.1559 101.464 38.256C101.506 38.3561 101.527 38.4635 101.527 38.5719C101.527 38.6804 101.506 38.7878 101.464 38.8879C101.422 38.988 101.361 39.0788 101.284 39.1551C101.128 39.3073 100.919 39.3925 100.701 39.3925C100.483 39.3925 100.273 39.3073 100.117 39.1551L89.7134 28.7511L79.3094 39.1551C79.1539 39.308 78.9443 39.3934 78.7262 39.3927Z" fill="#C037CF"/>
<path d="M122.675 39.3927C122.457 39.3919 122.248 39.3067 122.092 39.1551L111.688 28.7511L101.284 39.1551C101.128 39.3073 100.919 39.3925 100.701 39.3925C100.483 39.3925 100.273 39.3073 100.117 39.1551C100.04 39.0788 99.9793 38.988 99.9375 38.8879C99.8958 38.7878 99.8743 38.6804 99.8743 38.5719C99.8743 38.4635 99.8958 38.3561 99.9375 38.256C99.9793 38.1559 100.04 38.065 100.117 37.9887L111.105 27.0015C111.181 26.9245 111.272 26.8633 111.372 26.8215C111.472 26.7798 111.579 26.7583 111.688 26.7583C111.796 26.7583 111.904 26.7798 112.004 26.8215C112.104 26.8633 112.195 26.9245 112.271 27.0015L123.28 37.9887C123.396 38.1035 123.475 38.2503 123.507 38.4103C123.539 38.5702 123.523 38.7361 123.46 38.8868C123.398 39.0375 123.292 39.1661 123.156 39.2562C123.02 39.3463 122.86 39.3938 122.697 39.3927H122.675Z" fill="#C037CF"/>
<path d="M122.675 39.3927C122.457 39.3919 122.248 39.3067 122.092 39.1551C122.015 39.0788 121.954 38.988 121.912 38.8879C121.87 38.7878 121.849 38.6804 121.849 38.5719C121.849 38.4635 121.87 38.3561 121.912 38.256C121.954 38.1559 122.015 38.065 122.092 37.9887L133.079 27.0015C133.155 26.9245 133.246 26.8633 133.346 26.8215C133.446 26.7798 133.554 26.7583 133.662 26.7583C133.771 26.7583 133.878 26.7798 133.978 26.8215C134.078 26.8633 134.169 26.9245 134.245 27.0015L145.233 37.9887C145.31 38.065 145.371 38.1559 145.413 38.256C145.454 38.3561 145.476 38.4635 145.476 38.5719C145.476 38.6804 145.454 38.7878 145.413 38.8879C145.371 38.988 145.31 39.0788 145.233 39.1551C145.077 39.3073 144.867 39.3925 144.649 39.3925C144.432 39.3925 144.222 39.3073 144.066 39.1551L133.662 28.7511L123.28 39.1551C123.2 39.2335 123.106 39.2949 123.002 39.3357C122.898 39.3766 122.787 39.396 122.675 39.3927Z" fill="#C037CF"/>
<path d="M78.7262 83.3416C78.5631 83.3427 78.4033 83.2951 78.2673 83.205C78.1312 83.1149 78.0252 82.9863 77.9626 82.8356C77.9 82.6849 77.8837 82.519 77.9159 82.3591C77.948 82.1991 78.0271 82.0524 78.143 81.9376L100.117 59.9631C100.276 59.8303 100.479 59.7617 100.686 59.7708C100.892 59.78 101.088 59.8662 101.234 60.0125C101.381 60.1589 101.467 60.3547 101.476 60.5614C101.485 60.7682 101.417 60.9709 101.284 61.1296L79.3094 83.1039C79.1539 83.2569 78.9443 83.3423 78.7262 83.3416Z" fill="#C037CF"/>
<path d="M100.701 83.342C100.483 83.3427 100.273 83.2573 100.117 83.1044L78.1431 61.1012C78.0102 60.9426 77.9416 60.7399 77.9508 60.5331C77.9599 60.3264 78.0461 60.1306 78.1925 59.9842C78.3388 59.8379 78.5346 59.7516 78.7414 59.7425C78.9481 59.7334 79.1508 59.802 79.3095 59.9348L101.284 81.9092C101.4 82.024 101.479 82.1708 101.511 82.3308C101.543 82.4907 101.527 82.6566 101.464 82.8073C101.402 82.958 101.296 83.0866 101.16 83.1767C101.024 83.2668 100.864 83.3144 100.701 83.3132V83.342Z" fill="#C037CF"/>
<path d="M100.701 105.316H78.7263C78.5635 105.317 78.404 105.27 78.268 105.18C78.1321 105.09 78.026 104.962 77.9631 104.812C77.902 104.661 77.8865 104.495 77.9184 104.335C77.9504 104.175 78.0285 104.028 78.1431 103.912L88.5471 93.5008L78.1431 83.0968C78.0103 82.9382 77.9417 82.7355 77.9508 82.5287C77.96 82.322 78.0462 82.1262 78.1925 81.9798C78.3389 81.8335 78.5347 81.7473 78.7415 81.7381C78.9482 81.729 79.1509 81.7976 79.3095 81.9304L89.7136 92.3344L100.118 81.9304C100.276 81.7976 100.479 81.729 100.686 81.7381C100.892 81.7473 101.088 81.8335 101.235 81.9798C101.381 82.1262 101.467 82.322 101.476 82.5287C101.485 82.7355 101.417 82.9382 101.284 83.0968L90.8799 93.5008L101.284 103.905C101.4 104.02 101.479 104.166 101.511 104.326C101.543 104.486 101.527 104.652 101.464 104.803C101.402 104.954 101.296 105.082 101.16 105.172C101.024 105.262 100.864 105.31 100.701 105.309V105.316ZM80.7136 103.674H98.7136L89.7136 94.6744L80.7136 103.674Z" fill="#263238"/>
<path d="M71.0367 50.4379H59.3007L60.7767 38.5723H69.5535L71.0367 50.4379Z" fill="#C037CF"/>
<path d="M71.0368 51.2587H59.3008C59.1843 51.2584 59.0691 51.2339 58.9625 51.1868C58.8559 51.1397 58.7603 51.071 58.6816 50.9851C58.6056 50.8965 58.5486 50.7933 58.5139 50.6819C58.4792 50.5704 58.4677 50.4531 58.48 50.3371L59.9632 38.4715C59.9878 38.2729 60.084 38.0902 60.2338 37.9576C60.3836 37.825 60.5767 37.7517 60.7768 37.7515H69.5536C69.7545 37.7515 69.9485 37.8245 70.0995 37.957C70.2505 38.0895 70.3482 38.2723 70.3744 38.4715L71.8144 50.3371C71.8287 50.4524 71.8183 50.5695 71.7839 50.6805C71.7496 50.7915 71.692 50.894 71.6151 50.9811C71.5382 51.0682 71.4437 51.138 71.3378 51.1859C71.2319 51.2337 71.117 51.2585 71.0008 51.2587H71.0368ZM60.2368 49.6099H70.1008L68.8264 39.3931H61.5112L60.2368 49.6099Z" fill="#C037CF"/>
<path d="M144.649 39.3931H57.4431C57.3284 39.4039 57.2126 39.3905 57.1034 39.354C56.9941 39.3174 56.8936 39.2585 56.8084 39.1809C56.7232 39.1033 56.6552 39.0087 56.6086 38.9033C56.562 38.7979 56.538 38.684 56.538 38.5687C56.538 38.4535 56.562 38.3395 56.6086 38.2341C56.6552 38.1287 56.7232 38.0342 56.8084 37.9566C56.8936 37.879 56.9941 37.82 57.1034 37.7835C57.2126 37.7469 57.3284 37.7336 57.4431 37.7443H144.649C144.764 37.7336 144.88 37.7469 144.989 37.7835C145.099 37.82 145.199 37.879 145.284 37.9566C145.369 38.0342 145.437 38.1287 145.484 38.2341C145.531 38.3395 145.555 38.4535 145.555 38.5687C145.555 38.684 145.531 38.7979 145.484 38.9033C145.437 39.0087 145.369 39.1033 145.284 39.1809C145.199 39.2585 145.099 39.3174 144.989 39.354C144.88 39.3905 144.764 39.4039 144.649 39.3931Z" fill="#263238"/>
<path d="M133.662 28.4058H89.7423C89.537 28.3866 89.3462 28.2914 89.2073 28.139C89.0684 27.9865 88.9915 27.7877 88.9915 27.5814C88.9915 27.3752 89.0684 27.1763 89.2073 27.0239C89.3462 26.8714 89.537 26.7762 89.7423 26.757H133.662C133.777 26.7463 133.893 26.7596 134.002 26.7962C134.111 26.8327 134.212 26.8917 134.297 26.9693C134.382 27.0469 134.45 27.1414 134.497 27.2468C134.543 27.3522 134.567 27.4662 134.567 27.5814C134.567 27.6967 134.543 27.8106 134.497 27.916C134.45 28.0214 134.382 28.116 134.297 28.1936C134.212 28.2712 134.111 28.3301 134.002 28.3667C133.893 28.4032 133.777 28.4165 133.662 28.4058Z" fill="#C037CF"/>
<path d="M156.191 75.4648H71.4688C66.9873 75.4648 63.3544 79.0978 63.3544 83.5792V262.218C63.3544 266.7 66.9873 270.333 71.4688 270.333H156.191C160.673 270.333 164.306 266.7 164.306 262.218V83.5792C164.306 79.0978 160.673 75.4648 156.191 75.4648Z" fill="#C037CF"/>
<path opacity="0.2" d="M156.191 75.4648H71.4688C66.9873 75.4648 63.3544 79.0978 63.3544 83.5792V262.218C63.3544 266.7 66.9873 270.333 71.4688 270.333H156.191C160.673 270.333 164.306 266.7 164.306 262.218V83.5792C164.306 79.0978 160.673 75.4648 156.191 75.4648Z" fill="black"/>
<path d="M166.559 75.4648H81.8368C77.3554 75.4648 73.7224 79.0978 73.7224 83.5792V262.218C73.7224 266.7 77.3554 270.333 81.8368 270.333H166.559C171.041 270.333 174.674 266.7 174.674 262.218V83.5792C174.674 79.0978 171.041 75.4648 166.559 75.4648Z" fill="#C037CF"/>
<path d="M171.289 262.219V83.5722C171.289 80.9597 169.172 78.8418 166.559 78.8418H81.8294C79.2169 78.8418 77.099 80.9597 77.099 83.5722L77.099 262.219C77.099 264.831 79.2169 266.949 81.8294 266.949H166.559C169.172 266.949 171.289 264.831 171.289 262.219Z" fill="white"/>
<path opacity="0.1" d="M169.94 187.285L166.059 107.372C165.902 104.139 163.154 101.646 159.921 101.803L90.7531 105.161C87.5201 105.318 85.0265 108.067 85.1835 111.3L89.0639 191.212C89.2209 194.445 91.969 196.939 95.202 196.782L164.37 193.423C167.603 193.266 170.097 190.518 169.94 187.285Z" fill="black"/>
<path d="M168.59 88.0864V84.7024C168.59 82.9607 167.178 81.5488 165.436 81.5488H82.96C81.2183 81.5488 79.8064 82.9607 79.8064 84.7024V88.0864C79.8064 89.8281 81.2183 91.24 82.96 91.24H165.436C167.178 91.24 168.59 89.8281 168.59 88.0864Z" fill="#C037CF"/>
<path d="M89.1951 88.6623C88.5929 88.6623 88.0153 88.4236 87.5889 87.9985C87.1624 87.5734 86.9218 86.9965 86.9199 86.3943C86.9218 85.7915 87.1621 85.2139 87.5884 84.7876C88.0147 84.3614 88.5923 84.121 89.1951 84.1191C89.798 84.121 90.3756 84.3614 90.8018 84.7876C91.2281 85.2139 91.4684 85.7915 91.4703 86.3943C91.4684 86.9965 91.2279 87.5734 90.8014 87.9985C90.3749 88.4236 89.7973 88.6623 89.1951 88.6623Z" fill="white"/>
<path d="M95.9559 88.6623C95.3537 88.6623 94.7761 88.4236 94.3496 87.9985C93.9231 87.5734 93.6826 86.9965 93.6807 86.3943C93.6826 85.7915 93.9229 85.2139 94.3491 84.7876C94.7754 84.3614 95.353 84.121 95.9559 84.1191C96.558 84.121 97.1349 84.3616 97.56 84.7881C97.9852 85.2145 98.2239 85.7922 98.2239 86.3943C98.222 86.9953 97.9824 87.571 97.5575 87.996C97.1326 88.4209 96.5568 88.6604 95.9559 88.6623Z" fill="white"/>
<path d="M102.717 88.6623C102.115 88.6623 101.537 88.4236 101.11 87.9985C100.684 87.5734 100.443 86.9965 100.442 86.3943C100.443 85.7915 100.684 85.2139 101.11 84.7876C101.536 84.3614 102.114 84.121 102.717 84.1191C103.319 84.121 103.896 84.3616 104.321 84.7881C104.746 85.2145 104.985 85.7922 104.985 86.3943C104.983 86.9953 104.743 87.571 104.318 87.996C103.893 88.4209 103.318 88.6604 102.717 88.6623Z" fill="white"/>
<path d="M162.261 83.5723H159.107C158.423 83.5723 157.869 84.1267 157.869 84.8107V87.9643C157.869 88.6482 158.423 89.2027 159.107 89.2027H162.261C162.945 89.2027 163.499 88.6482 163.499 87.9643V84.8107C163.499 84.1267 162.945 83.5723 162.261 83.5723Z" fill="white"/>
<path d="M108.005 228.64C116.055 225.306 119.877 216.078 116.543 208.029C113.209 199.98 103.981 196.157 95.9317 199.491C87.8825 202.826 84.0601 212.053 87.3942 220.103C90.7283 228.152 99.9563 231.974 108.005 228.64Z" fill="#C037CF"/>
<path d="M158.279 206.894H127.521C126.998 206.892 126.497 206.683 126.128 206.314C125.758 205.944 125.55 205.444 125.548 204.921C125.55 204.398 125.758 203.898 126.128 203.528C126.497 203.159 126.998 202.95 127.521 202.948H158.279C158.802 202.948 159.304 203.156 159.674 203.526C160.044 203.896 160.252 204.398 160.252 204.921C160.252 205.444 160.044 205.946 159.674 206.316C159.304 206.686 158.802 206.894 158.279 206.894Z" fill="#C037CF"/>
<path d="M158.279 216.038H127.521C126.998 216.036 126.497 215.828 126.128 215.458C125.758 215.088 125.55 214.588 125.548 214.065C125.55 213.542 125.758 213.042 126.128 212.672C126.497 212.303 126.998 212.094 127.521 212.092H158.279C158.802 212.092 159.304 212.3 159.674 212.67C160.044 213.04 160.252 213.542 160.252 214.065C160.252 214.588 160.044 215.09 159.674 215.46C159.304 215.83 158.802 216.038 158.279 216.038Z" fill="#C037CF"/>
<path d="M158.279 221.236H127.521C126.431 221.236 125.548 222.12 125.548 223.209C125.548 224.299 126.431 225.182 127.521 225.182H158.279C159.369 225.182 160.252 224.299 160.252 223.209C160.252 222.12 159.369 221.236 158.279 221.236Z" fill="#C037CF"/>
<path d="M155.14 238.696H93.2631C89.3583 238.696 86.1927 241.862 86.1927 245.767V254.558C86.1927 258.463 89.3583 261.628 93.2631 261.628H155.14C159.045 261.628 162.21 258.463 162.21 254.558V245.767C162.21 241.862 159.045 238.696 155.14 238.696Z" fill="#E0E0E0"/>
<path d="M178.459 181.501L172.237 101.737C171.985 98.5101 169.165 96.0981 165.938 96.3498L96.8983 101.735C93.6713 101.987 91.2593 104.807 91.511 108.034L97.7325 187.798C97.9842 191.025 100.804 193.437 104.031 193.185L173.071 187.8C176.298 187.548 178.71 184.728 178.459 181.501Z" fill="white"/>
<path d="M103.559 193.581C101.991 193.578 100.482 192.983 99.3338 191.915C98.1857 190.847 97.4833 189.385 97.3671 187.821L91.1463 108.053C91.0211 106.409 91.5525 104.783 92.6241 103.53C93.6956 102.278 95.22 101.501 96.8631 101.371L165.911 95.9853C167.555 95.8601 169.181 96.3915 170.433 97.4631C171.686 98.5346 172.462 100.059 172.593 101.702L178.814 181.471C178.941 183.116 178.41 184.744 177.338 185.998C176.267 187.252 174.741 188.029 173.097 188.16L104.049 193.538C103.883 193.581 103.725 193.581 103.559 193.581ZM98.0871 187.821C98.2047 189.271 98.892 190.616 99.9984 191.56C101.105 192.505 102.541 192.973 103.991 192.861L173.039 187.476C174.49 187.356 175.834 186.668 176.779 185.56C177.723 184.452 178.191 183.016 178.079 181.564L171.858 101.796C171.741 100.344 171.052 98.9987 169.944 98.0539C168.836 97.1092 167.399 96.6423 165.947 96.7557L96.9063 102.141C95.4556 102.261 94.1112 102.949 93.1668 104.057C92.2224 105.165 91.7549 106.601 91.8663 108.053L98.0871 187.821Z" fill="#C037CF"/>
<path d="M175.457 180.088L174.078 162.409C173.879 159.859 171.651 157.954 169.102 158.153L103.35 163.282C100.801 163.48 98.8953 165.708 99.0941 168.257L100.473 185.937C100.672 188.486 102.9 190.391 105.449 190.193L171.201 185.064C173.75 184.865 175.655 182.638 175.457 180.088Z" fill="#C037CF"/>
<path opacity="0.2" d="M136.453 153.282L132.806 106.524C132.604 103.943 130.349 102.014 127.768 102.215L98.8258 104.473C96.245 104.674 94.316 106.929 94.5173 109.51L98.1644 156.269C98.3657 158.85 100.621 160.779 103.202 160.577L132.144 158.32C134.725 158.119 136.654 155.863 136.453 153.282Z" fill="#C037CF"/>
<path opacity="0.2" d="M169.803 110.693L169.185 102.761C169.023 100.688 167.211 99.1379 165.138 99.2997L140.337 101.234C138.264 101.396 136.714 103.208 136.876 105.281L137.494 113.213C137.656 115.286 139.468 116.836 141.541 116.674L166.342 114.74C168.415 114.578 169.965 112.766 169.803 110.693Z" fill="#C037CF"/>
<path opacity="0.4" d="M171.385 131.025L170.766 123.094C170.605 121.02 168.793 119.47 166.719 119.632L141.919 121.567C139.845 121.728 138.296 123.54 138.457 125.614L139.076 133.546C139.238 135.619 141.05 137.169 143.123 137.007L167.924 135.072C169.997 134.911 171.547 133.099 171.385 131.025Z" fill="#C037CF"/>
<path opacity="0.6" d="M172.974 151.357L172.355 143.426C172.193 141.352 170.382 139.802 168.308 139.964L143.508 141.899C141.434 142.06 139.884 143.872 140.046 145.946L140.665 153.878C140.827 155.951 142.638 157.501 144.712 157.339L169.513 155.405C171.586 155.243 173.136 153.431 172.974 151.357Z" fill="#C037CF"/>
<path d="M142.9 86.7615C142.803 86.7615 142.709 86.7228 142.64 86.6539C142.571 86.5851 142.533 86.4917 142.533 86.3943V38.5719C142.522 38.5186 142.523 38.4636 142.536 38.4108C142.55 38.3581 142.574 38.3089 142.609 38.2669C142.643 38.2248 142.686 38.1909 142.736 38.1677C142.785 38.1444 142.838 38.1323 142.893 38.1323C142.947 38.1323 143.001 38.1444 143.05 38.1677C143.099 38.1909 143.142 38.2248 143.177 38.2669C143.211 38.3089 143.236 38.3581 143.249 38.4108C143.262 38.4636 143.263 38.5186 143.253 38.5719V86.3943C143.253 86.4892 143.216 86.5805 143.15 86.649C143.085 86.7174 142.995 86.7578 142.9 86.7615Z" fill="#263238"/>
<path d="M147.472 94.2211H138.328C137.964 94.2207 137.609 94.1028 137.317 93.8849C137.025 93.667 136.812 93.3607 136.708 93.0115L134.742 86.3299C134.67 86.0785 134.657 85.8137 134.704 85.5563C134.751 85.2989 134.858 85.056 135.015 84.8467C135.172 84.6374 135.375 84.4673 135.609 84.3499C135.843 84.2325 136.101 84.1708 136.362 84.1699H149.437C149.699 84.1708 149.957 84.2325 150.191 84.3499C150.425 84.4673 150.628 84.6374 150.785 84.8467C150.942 85.056 151.048 85.2989 151.096 85.5563C151.143 85.8137 151.13 86.0785 151.057 86.3299L149.092 93.0115C148.989 93.3613 148.776 93.6682 148.483 93.8863C148.191 94.1044 147.836 94.2219 147.472 94.2211Z" fill="#263238"/>
<path d="M142.9 104.575C142.682 104.575 142.473 104.488 142.32 104.334C142.166 104.18 142.079 103.972 142.079 103.754C142.079 103.536 142.166 103.327 142.32 103.173C142.473 103.02 142.682 102.933 142.9 102.933C143.664 102.933 144.396 102.63 144.936 102.09C145.476 101.549 145.78 100.817 145.78 100.053C145.78 99.2893 145.476 98.5567 144.936 98.0166C144.396 97.4765 143.664 97.1731 142.9 97.1731C142.682 97.1731 142.473 97.0866 142.32 96.9327C142.166 96.7787 142.079 96.57 142.079 96.3523V94.2211C142.098 94.0157 142.193 93.8249 142.346 93.6861C142.498 93.5472 142.697 93.4702 142.904 93.4702C143.11 93.4702 143.309 93.5472 143.461 93.6861C143.614 93.8249 143.709 94.0157 143.728 94.2211V95.5963C144.833 95.8058 145.82 96.4197 146.497 97.318C147.174 98.2164 147.491 99.3347 147.388 100.455C147.284 101.575 146.767 102.616 145.937 103.375C145.108 104.134 144.025 104.557 142.9 104.56V104.575Z" fill="#263238"/>
<path d="M269.958 115.512C270.873 117.621 271.622 119.623 272.356 121.725C273.09 123.828 273.76 125.901 274.329 128.061C274.952 130.266 275.452 132.504 275.826 134.764C276.039 135.973 276.188 137.191 276.273 138.415C276.383 139.855 276.346 141.302 276.165 142.735L276.122 143.03C276.102 143.172 276.07 143.311 276.028 143.448C275.381 145.417 274.604 147.341 273.703 149.208C272.86 151.015 271.902 152.721 270.952 154.413C270.002 156.105 268.965 157.725 267.892 159.331C266.819 160.936 265.732 162.492 264.508 164.04C264.1 164.55 263.525 164.901 262.885 165.031C262.244 165.161 261.578 165.063 261.003 164.753C260.427 164.443 259.979 163.941 259.735 163.334C259.492 162.728 259.468 162.055 259.67 161.433V161.368C260.246 159.633 260.886 157.862 261.498 156.12C262.11 154.377 262.744 152.649 263.327 150.921C263.91 149.193 264.494 147.472 265.012 145.795C265.53 144.117 265.984 142.432 266.301 140.899L266.164 141.619C266.149 140.926 266.079 140.235 265.955 139.552C265.811 138.724 265.631 137.817 265.401 136.903C265.171 135.988 264.918 135.052 264.638 134.109C264.357 133.166 264.069 132.216 263.752 131.229C263.118 129.321 262.463 127.392 261.765 125.469L259.655 119.76L259.619 119.659C259.07 118.291 259.087 116.76 259.667 115.405C260.246 114.049 261.34 112.979 262.708 112.43C264.076 111.881 265.607 111.898 266.962 112.477C268.318 113.057 269.388 114.151 269.937 115.519L269.958 115.512Z" fill="#C037CF"/>
<path opacity="0.7" d="M269.958 115.512C270.873 117.621 271.622 119.623 272.356 121.725C273.09 123.828 273.76 125.901 274.329 128.061C274.952 130.266 275.452 132.504 275.826 134.764C276.039 135.973 276.188 137.191 276.273 138.415C276.383 139.855 276.346 141.302 276.165 142.735L276.122 143.03C276.102 143.172 276.07 143.311 276.028 143.448C275.381 145.417 274.604 147.341 273.703 149.208C272.86 151.015 271.902 152.721 270.952 154.413C270.002 156.105 268.965 157.725 267.892 159.331C266.819 160.936 265.732 162.492 264.508 164.04C264.1 164.55 263.525 164.901 262.885 165.031C262.244 165.161 261.578 165.063 261.003 164.753C260.427 164.443 259.979 163.941 259.735 163.334C259.492 162.728 259.468 162.055 259.67 161.433V161.368C260.246 159.633 260.886 157.862 261.498 156.12C262.11 154.377 262.744 152.649 263.327 150.921C263.91 149.193 264.494 147.472 265.012 145.795C265.53 144.117 265.984 142.432 266.301 140.899L266.164 141.619C266.149 140.926 266.079 140.235 265.955 139.552C265.811 138.724 265.631 137.817 265.401 136.903C265.171 135.988 264.918 135.052 264.638 134.109C264.357 133.166 264.069 132.216 263.752 131.229C263.118 129.321 262.463 127.392 261.765 125.469L259.655 119.76L259.619 119.659C259.07 118.291 259.087 116.76 259.667 115.405C260.246 114.049 261.34 112.979 262.708 112.43C264.076 111.881 265.607 111.898 266.962 112.477C268.318 113.057 269.388 114.151 269.937 115.519L269.958 115.512Z" fill="white"/>
<path d="M260.001 160.461L256.322 162.391L261.47 167.74C262.456 167.037 263.336 166.195 264.083 165.242C264.589 164.559 264.805 163.704 264.683 162.862C264.562 162.021 264.113 161.262 263.435 160.749C262.948 160.381 262.368 160.159 261.76 160.108C261.152 160.057 260.542 160.179 260.001 160.461Z" fill="#7F3E3B"/>
<path d="M254.32 168.518L256.444 170.088C256.853 170.388 257.356 170.535 257.863 170.502C258.37 170.469 258.849 170.259 259.216 169.908L261.441 167.748L256.293 162.398L253.931 165.501C253.585 165.954 253.432 166.525 253.505 167.09C253.577 167.655 253.87 168.168 254.32 168.518Z" fill="#7F3E3B"/>
<path d="M201.357 126.355L197.562 121.459L193.206 127.471C193.206 127.471 197.181 131.481 199.65 129.717L201.357 126.355Z" fill="#7F3E3B"/>
<path d="M191.19 120.602L190.017 122.964C189.793 123.42 189.737 123.942 189.859 124.436C189.982 124.93 190.275 125.365 190.686 125.664L193.206 127.471L197.562 121.459L194.106 119.652C193.853 119.521 193.576 119.443 193.292 119.42C193.007 119.397 192.722 119.431 192.451 119.519C192.179 119.608 191.929 119.749 191.712 119.935C191.496 120.121 191.319 120.347 191.19 120.602Z" fill="#7F3E3B"/>
<path d="M264.299 274.322H259.734L259.173 273.796L258.33 274.322C255.544 274.322 251.786 274.221 249.993 273.602C249.941 273.392 249.948 273.173 250.013 272.967C250.077 272.761 250.198 272.577 250.36 272.435C250.36 272.435 257.74 270.153 258.402 268.619H263.997" fill="#263238"/>
<path d="M258.64 209.774C257.726 186.172 259.216 167.517 256.977 158.467L236.097 155.09C236.097 155.09 239.942 195.071 244.564 211.61C249.187 228.148 257.524 268.994 257.524 268.994H264.631C264.631 268.994 264.803 229.142 258.64 209.774Z" fill="#C037CF"/>
<path opacity="0.2" d="M243.52 174.861L239.639 184.941C240.878 193.761 242.361 202.783 243.959 209.263C245.68 197.498 244.434 178.202 243.52 174.861Z" fill="black"/>
<path d="M205.158 267.554C205.158 267.554 215.663 268.353 216.815 267.086L222.323 268.778L220.782 274.322L217.384 273.285L217.002 272.616L216.009 272.86C213.258 272.018 205.986 269.678 204.417 268.54C204.439 268.324 204.52 268.118 204.65 267.944C204.781 267.77 204.957 267.635 205.158 267.554Z" fill="#263238"/>
<path d="M236.558 211.207C243.58 193.983 248.231 175.884 250.382 157.408L227.586 153.679C227.586 153.679 224.202 194.913 222.726 211.862C221.2 229.48 215.274 267.021 215.274 267.021L222.64 269.253C222.64 269.253 235.794 233.124 236.558 211.207Z" fill="#C037CF"/>
<path d="M258.892 93.5366C257.553 97.8566 256.732 104.113 258.028 107.649C255.508 109.391 251.548 111.421 246.746 110.651C241.943 109.881 243.311 106.763 244.838 105.28C248.531 104.049 248.92 102.313 248.308 100.65L258.892 93.5366Z" fill="#7F3E3B"/>
<path d="M262.348 109.377C261.227 108.03 260.004 106.771 258.69 105.611C257.567 104.833 248.243 103.674 246.018 103.753C243.794 103.833 240.705 106.677 240.705 106.677L262.348 109.377Z" fill="#C037CF"/>
<path opacity="0.7" d="M262.348 109.377C261.227 108.03 260.004 106.771 258.69 105.611C257.567 104.833 248.243 103.674 246.018 103.753C243.794 103.833 240.705 106.677 240.705 106.677L262.348 109.377Z" fill="white"/>
<path d="M246.4 88.3744C246.256 88.7992 245.918 89.0944 245.644 88.9792C245.37 88.864 245.248 88.4608 245.392 88.0288C245.536 87.5968 245.874 87.3088 246.148 87.4312C246.422 87.5536 246.544 87.9496 246.4 88.3744Z" fill="#263238"/>
<path d="M246.234 88.9795C245.298 90.1096 244.21 91.1054 243.002 91.9387C243.223 92.2452 243.508 92.4998 243.838 92.6851C244.167 92.8703 244.533 92.9817 244.91 93.0115L246.234 88.9795Z" fill="#630F0F"/>
<path d="M246.4 85.4299C246.417 85.4701 246.445 85.5048 246.481 85.5302C246.516 85.5556 246.558 85.5707 246.602 85.5739C246.93 85.6073 247.246 85.718 247.524 85.8969C247.802 86.0759 248.034 86.318 248.2 86.6035C248.214 86.6349 248.234 86.6631 248.259 86.6865C248.284 86.7098 248.314 86.7278 248.346 86.7392C248.379 86.7507 248.413 86.7554 248.447 86.7531C248.482 86.7508 248.515 86.7416 248.546 86.7259C248.608 86.6949 248.656 86.6405 248.679 86.5745C248.702 86.5085 248.698 86.4362 248.668 86.3731C248.465 86.0076 248.178 85.6964 247.829 85.4658C247.481 85.2352 247.082 85.0919 246.666 85.0483C246.62 85.0457 246.573 85.055 246.531 85.0754C246.49 85.0958 246.454 85.1266 246.427 85.1648C246.4 85.2031 246.384 85.2475 246.379 85.2939C246.374 85.3403 246.381 85.3871 246.4 85.4299Z" fill="#263238"/>
<path d="M261.182 92.0105C259.13 97.1369 258.194 100.247 254.702 102.04C249.395 104.74 243.729 100.147 244.204 94.4945C244.629 89.4113 247.905 81.8801 253.708 81.5345C254.991 81.4622 256.271 81.7158 257.429 82.2716C258.587 82.8273 259.586 83.6673 260.332 84.713C261.078 85.7588 261.547 86.9764 261.696 88.2524C261.844 89.5284 261.667 90.8213 261.182 92.0105Z" fill="#7F3E3B"/>
<path d="M249.654 92.1768C249.514 93.3382 249.619 94.5161 249.963 95.6343C250.306 96.7525 250.881 97.7861 251.649 98.6684C252.417 99.5506 253.362 100.262 254.423 100.756C255.483 101.25 256.635 101.516 257.805 101.537C262.96 101.537 263.039 94.1928 262.125 92.5008C264.861 92.0256 266.445 88.2672 264.774 85.8912C267.287 83.9184 261.477 80.9232 254.406 80.5344C246.609 80.1024 248.034 84.696 250.634 86.0856C248.135 86.8272 247.876 91.2768 249.654 92.1768Z" fill="#263238"/>
<path d="M248.157 82.4998C248.157 82.4998 248.654 88.5406 253.73 92.1766C258.806 95.8126 263.32 96.151 263.32 96.151L264.573 92.1766C264.573 92.1766 253.11 85.2718 249.237 81.4126C248.856 81.7532 248.495 82.1163 248.157 82.4998Z" fill="#C037CF"/>
<path opacity="0.6" d="M248.157 82.4998C248.157 82.4998 248.654 88.5406 253.73 92.1766C258.806 95.8126 263.32 96.151 263.32 96.151L264.573 92.1766C264.573 92.1766 253.11 85.2718 249.237 81.4126C248.856 81.7532 248.495 82.1163 248.157 82.4998Z" fill="white"/>
<path d="M252.347 92.248C251.685 93.2228 250.675 93.9079 249.525 94.1632C248.085 94.444 247.624 92.9752 248.265 91.5568C248.841 90.2824 250.295 88.5976 251.642 88.9576C252.988 89.3176 253.211 91.0096 252.347 92.248Z" fill="#7F3E3B"/>
<path d="M262.125 108.729C254.824 106.72 244.262 105.266 237.076 105.46C235.299 105.515 233.59 106.159 232.217 107.29C230.845 108.421 229.888 109.976 229.494 111.71C227.061 122.265 226.686 141.287 225.981 160.389C241.648 168.309 259.194 165.17 259.194 165.17C260.123 161.433 259.914 148.711 259.59 141.885C261.534 135.175 265.055 127.679 267.726 118.78C268.031 117.753 268.127 116.674 268.009 115.609C267.891 114.544 267.561 113.513 267.039 112.577C266.518 111.641 265.814 110.818 264.97 110.157C264.126 109.496 263.159 109.011 262.125 108.729Z" fill="#C037CF"/>
<path opacity="0.7" d="M262.125 108.729C254.824 106.72 244.262 105.266 237.076 105.46C235.299 105.515 233.59 106.159 232.217 107.29C230.845 108.421 229.888 109.976 229.494 111.71C227.061 122.265 226.686 141.287 225.981 160.389C241.648 168.309 259.194 165.17 259.194 165.17C260.123 161.433 259.914 148.711 259.59 141.885C261.534 135.175 265.055 127.679 267.726 118.78C268.031 117.753 268.127 116.674 268.009 115.609C267.891 114.544 267.561 113.513 267.039 112.577C266.518 111.641 265.814 110.818 264.97 110.157C264.126 109.496 263.159 109.011 262.125 108.729Z" fill="white"/>
<path d="M239.099 104.402C233.08 104.056 229.336 107.03 227.802 116.116C226.269 125.203 224.613 145.802 225.254 153.233C245.464 161.736 257.999 158.272 260.699 156.292C261.758 154.673 261.369 149.64 260.836 147.652C262.189 144.084 262.865 140.294 262.83 136.478C265.826 133.598 267.15 128.076 267.251 125.93C269.886 122.416 270.239 114.46 268.778 112.193C267.316 109.924 263.068 105.741 239.099 104.402Z" fill="#263238"/>
<path opacity="0.2" d="M228.155 154.751C228.06 154.751 227.968 154.713 227.901 154.646C227.833 154.578 227.795 154.487 227.795 154.391C227.795 139.79 229.746 118.255 232.49 110.702C232.522 110.612 232.589 110.539 232.675 110.498C232.762 110.458 232.861 110.453 232.95 110.486C232.996 110.501 233.037 110.525 233.072 110.557C233.108 110.589 233.136 110.627 233.157 110.67C233.177 110.713 233.188 110.76 233.19 110.807C233.191 110.855 233.184 110.902 233.166 110.947C230.711 117.707 228.53 138.011 228.515 154.391C228.515 154.439 228.506 154.485 228.488 154.529C228.47 154.573 228.443 154.612 228.41 154.646C228.376 154.679 228.337 154.706 228.293 154.724C228.249 154.742 228.203 154.751 228.155 154.751Z" fill="white"/>
<path d="M238.998 114.381C237.904 116.375 236.795 118.154 235.6 119.99C234.405 121.826 233.152 123.59 231.784 125.332C230.408 127.136 228.927 128.857 227.349 130.487C226.501 131.372 225.602 132.206 224.656 132.986C223.552 133.92 222.344 134.725 221.056 135.383L220.797 135.513C220.667 135.576 220.532 135.629 220.393 135.671C218.232 136.307 215.97 136.527 213.726 136.319C212.724 136.242 211.728 136.095 210.745 135.88C209.805 135.688 208.875 135.447 207.959 135.16C206.203 134.596 204.494 133.895 202.847 133.065C202.033 132.654 201.249 132.215 200.471 131.754C199.693 131.294 198.973 130.818 198.16 130.228C197.638 129.852 197.263 129.307 197.097 128.686C196.932 128.064 196.988 127.405 197.255 126.82C197.521 126.235 197.982 125.76 198.56 125.477C199.137 125.194 199.795 125.12 200.421 125.267L200.665 125.325L202.919 125.85C203.682 126.03 204.453 126.189 205.216 126.333C206.701 126.626 208.201 126.842 209.709 126.981C211.086 127.106 212.472 127.106 213.849 126.981C214.947 126.898 216.024 126.628 217.031 126.182L216.369 126.477C216.884 126.099 217.365 125.677 217.809 125.217C218.363 124.648 218.961 124 219.537 123.309C220.113 122.618 220.689 121.869 221.25 121.113C221.812 120.357 222.395 119.572 222.949 118.766C224.051 117.167 225.153 115.518 226.225 113.841C227.298 112.163 228.385 110.428 229.379 108.801L229.429 108.714C229.802 108.086 230.294 107.537 230.878 107.099C231.462 106.661 232.127 106.342 232.834 106.161C233.542 105.98 234.278 105.94 235.001 106.043C235.723 106.147 236.419 106.391 237.047 106.763C237.675 107.135 238.224 107.627 238.662 108.212C239.1 108.796 239.419 109.461 239.6 110.168C239.782 110.875 239.822 111.611 239.718 112.334C239.615 113.057 239.37 113.753 238.998 114.381Z" fill="#C037CF"/>
<path opacity="0.7" d="M238.998 114.381C237.904 116.375 236.795 118.154 235.6 119.99C234.405 121.826 233.152 123.59 231.784 125.332C230.408 127.136 228.927 128.857 227.349 130.487C226.501 131.372 225.602 132.206 224.656 132.986C223.552 133.92 222.344 134.725 221.056 135.383L220.797 135.513C220.667 135.576 220.532 135.629 220.393 135.671C218.232 136.307 215.97 136.527 213.726 136.319C212.724 136.242 211.728 136.095 210.745 135.88C209.805 135.688 208.875 135.447 207.959 135.16C206.203 134.596 204.494 133.895 202.847 133.065C202.033 132.654 201.249 132.215 200.471 131.754C199.693 131.294 198.973 130.818 198.16 130.228C197.638 129.852 197.263 129.307 197.097 128.686C196.932 128.064 196.988 127.405 197.255 126.82C197.521 126.235 197.982 125.76 198.56 125.477C199.137 125.194 199.795 125.12 200.421 125.267L200.665 125.325L202.919 125.85C203.682 126.03 204.453 126.189 205.216 126.333C206.701 126.626 208.201 126.842 209.709 126.981C211.086 127.106 212.472 127.106 213.849 126.981C214.947 126.898 216.024 126.628 217.031 126.182L216.369 126.477C216.884 126.099 217.365 125.677 217.809 125.217C218.363 124.648 218.961 124 219.537 123.309C220.113 122.618 220.689 121.869 221.25 121.113C221.812 120.357 222.395 119.572 222.949 118.766C224.051 117.167 225.153 115.518 226.225 113.841C227.298 112.163 228.385 110.428 229.379 108.801L229.429 108.714C229.802 108.086 230.294 107.537 230.878 107.099C231.462 106.661 232.127 106.342 232.834 106.161C233.542 105.98 234.278 105.94 235.001 106.043C235.723 106.147 236.419 106.391 237.047 106.763C237.675 107.135 238.224 107.627 238.662 108.212C239.1 108.796 239.419 109.461 239.6 110.168C239.782 110.875 239.822 111.611 239.718 112.334C239.615 113.057 239.37 113.753 238.998 114.381Z" fill="white"/>
<path d="M264.674 94.7037C264.58 94.795 264.464 94.8593 264.337 94.8897C264.211 94.9202 264.078 94.9156 263.954 94.8765C259.906 93.3295 256.18 91.0444 252.966 88.1373C247.516 83.1405 247.048 77.4165 249.467 80.1525C250.806 78.7125 256.494 76.9557 261.765 79.2381C267.338 81.6645 270.023 89.1813 264.674 94.7037Z" fill="#C037CF"/>
<path d="M260.015 78.6332C261.386 79.9342 262.368 81.591 262.851 83.4182C263.334 85.2453 263.3 87.1709 262.751 88.9796C263.924 88.7251 265.05 88.2929 266.092 87.698C266.092 87.698 266.934 83.6587 265.372 81.0595C263.81 78.4603 260.354 77.8052 260.015 78.6332Z" fill="#C037CF"/>
<path opacity="0.2" d="M262.751 88.9795C263.3 87.1709 263.334 85.2453 262.851 83.4181C262.368 81.5909 261.386 79.9342 260.015 78.6331C260.061 78.5522 260.125 78.4833 260.203 78.432C260.281 78.3807 260.369 78.3485 260.462 78.3379C261.556 79.0435 264.573 83.3275 262.751 88.9795Z" fill="black"/>
<defs>
<filter id="filter0_f_603_6224" x="0.399048" y="245.523" width="319.202" height="56.3008" filterUnits="userSpaceOnUse" color-interpolation-filters="sRGB">
<feFlood flood-opacity="0" result="BackgroundImageFix"/>
<feBlend mode="normal" in="SourceGraphic" in2="BackgroundImageFix" result="shape"/>
<feGaussianBlur stdDeviation="10" result="effect1_foregroundBlur_603_6224"/>
</filter>
</defs>
</svg>
